<?xml version="1.0" encoding="UTF-8"?><svg id="AIrtwork" xmlns="http://www.w3.org/2000/svg" xmlns:xlink="http://www.w3.org/1999/xlink" viewBox="0 0 1000 1000"><defs><linearGradient id="linear-gradient" x1="499.6902" y1="879.6153" x2="499.6902" y2="18.3145" gradientUnits="userSpaceOnUse"><stop offset="0" stop-color="#fff" stop-opacity="0"/><stop offset=".52" stop-color="#ffa200" stop-opacity=".96"/><stop offset=".992" stop-color="#ff2a70"/></linearGradient></defs><path d="m259.054,864.5678c-23.0351-2.6334-46.1864-5.4702-68.1402-13.2006-64.2081-23.857-116.7288-84.333-132.2798-151.0444-14.4449-67.9426,11.5816-106.0138,45.7396-160.4115,12.6391-21.0877,21.3608-44.0386,24.8027-68.3694,9.209-82.2187,4.9583-110.8058,78.3194-161.9571,43.1528-30.0579,65.8508-58.0641,71.061-111.8071,5.4115-58.3877,5.3519-112.7702,54.1578-153.9972,30.4352-25.8857,74.8925-32.8216,111.7178-17.1845,57.3062,22.3899,82.1539,86.3194,128.343,122.3629,30.7866,23.9757,66.9018,24.0803,100.2723,6.8182,28.4077-13.7443,54.4559-35.9818,85.5543-44.1275,54.6492-14.6336,91.8109,33.7287,91.3067,84.8148.9635,46.1928-26.1468,90.9003-22.2254,135.5025,4.2202,48.535,52.3018,76.0175,81.9439,110.1,35.4377,38.1544,34.7668,86.3911,35.1927,135.4031-.3117,34.912.7017,71.0604-2.6415,106.214-2.9718,30.9632-14.7698,61.1482-32.8216,86.5659-37.6239,54.3708-101.3763,84.3273-165.2516,98.4234-41.0215,9.3556-82.2194,14.4411-123.4454,8.1765-30.9317-4.3836-60.6222-14.5303-90.6083-22.9856-28.9067-8.4462-58.5047-13.3638-88.4453-16.8916" style="fill:url(#linear-gradient); stroke-width:0px;"/><path d="m676.2826,946.8338c8.0028.768,11.3195,3.2905,14.427,3.3293,3.5891,8.3636,13.17,12.8464,21.0857,16.0917-18.1397,9.1098-51.3445-9.3877-44.3908-19.421,3.8427-1.2482,5.1336-.3593,8.8782,0Z" style="fill:#89857e; stroke-width:0px;"/><path d="m235.7035,578.3898c-1.0227,3.5992-1.9294,4.7769-3.3293,7.7684-6.0478-1.9111-4.1637-12.398,3.3293-7.7684Z" style="fill:#d5c7bc; stroke-width:0px;"/><path d="m357.7783,933.5165c-6.536,5.6763-6.4961,2.0618-7.7684,2.2195-6.0371-7.4948-9.2985-26.405,3.8842-28.854,6.9672-1.2943,9.5069,2.3937,9.9879,2.2195,10.978-3.9744-15.9874-14.8935-24.9698,4.994-1.3021,2.8829.7551,19.2483-13.8721,10.5428-9.3346-5.5555.5221-26.4996,16.6466-29.9638,35.6599-7.6612,47.7257,45.8515,14.9819,22.7503-.3312,4.7836-1.1944,11.7247,1.1098,16.0917Z" style="fill:#e9e1e0; stroke-width:0px;"/><path d="m601.9279,934.6263q-5.2714,6.1037-10.5428,12.2075c-3.4312-.2279-2.5612-3.2909-2.7744-3.3293-.1053-5.8797,2.2279-18.7285,10.5428-15.5368,3.5182,1.3505,2.5837,6.3366,2.7744,6.6586Z" style="fill:#e9e1e0; stroke-width:0px;"/><path d="m288.9725,454.0954c.0613,13.4751-2.0803,26.9817-1.1098,40.5066-2.4123,1.3897-4.4987,3.3955-6.6586,4.994-.2821.2088-5.3176,1.873-6.6586,2.2195-6.4896-10.0017-1.65-22.8386-3.3293-33.848-.9934-6.5124-9.1135-15.0208-5.5489-24.9698.0894-.0861-.3337-1.5192,2.2195-1.1098.1188,1.19.9937,6.8676,1.1098,7.2135,5.2671,15.6981,3.6832-4.1431,4.4391-24.415q4.994,5.5489,9.9879,11.0977c.624-15.8168-10.8049-17.1763-1.1098-32.1834,12.6109-19.5204,33.1313-17.6406,2.2195,12.2075,5.7449,12.2404,4.3798,25.2593,4.4391,38.2871Z" style="fill:#0889b4; stroke-width:0px;"/><path d="m272.3259,509.584c-.4337,10.0861,7.0351,57.4283,6.1037,77.684-7.5366-7.0684-18.3173-11.6126-22.7503-21.6405-1.518-3.434-13.4933-51.8504-7.2135-50.4946,1.7217,3.4748,2.7216,9.3094,4.994,12.2075,4.7535,6.0624,1.8697-11.1665,18.8661-17.7563Z" style="fill:#f1841d; stroke-width:0px;"/><path d="m475.414,404.1557q3.0519,1.1098,6.1037,2.2195c3.9471,4.86-7.4544-1.81-11.0977-2.2195-6.0252-.6773-17.7429.8988-21.0857,0-1.5078-.4055-20.8645-18.7523-26.0796-4.4391h-4.994c-11.5332-12.2659-30.0108-17.0785-42.7262-26.6345-7.5413-5.7221-12.3921-18.8817-.5549-23.3052,20.9826-7.841,9.4998,9.2414,11.6526,13.8721,1.3142,2.8269,19.5786,5.2778,19.9759,6.6586-23.8496,17.5506,17.6491,10.1348-2.2195,7.7684,1.532-7.7655,27.4921-2.3897,28.854,1.1098-3.6576,22.7223,23.4548,17.0927,42.1713,24.9698Z" style="fill:#0889b4; stroke-width:0px;"/><path d="m547.5491,494.0472c-4.7077.3262-9.7018-.9804-11.6526,1.1098q-1.3872-1.3872-2.7744-2.7744c.8398-15.9353-2.5472-58.7897,4.4391-70.4705,3.3651-5.6262,15.3817-7.5045,22.1954-8.3233-15.0948,28.8376-15.7789,49.5092-4.4391,79.9035-.7928,1.1104-6.0772.4377-7.7684.5549Z" style="fill:#115822; stroke-width:0px;"/><path d="m719.5637,939.0654c-10.0786,7.8344-16.333,8.8498-28.854,11.0977-3.1075-.0388-6.4243-2.5613-14.427-3.3293q2.2195-1.6647,4.4391-3.3293c17.2802,2.3974,23.7981,4.2792,39.9518-7.7684-.0618.1643,1.9834-.0799-1.1098,3.3293Z" style="fill:#dbd7c4; stroke-width:0px;"/><path d="m719.5637,939.0654c3.0932-3.4092,1.048-3.1651,1.1098-3.3293,1.3592-3.6135,5.1762-9.2625,5.5489-11.6526,2.6623-17.0782-19.1198-48.0635-21.6405-47.1653-1.216.4333-1.2588,7.5109-4.994,2.7744-3.4045-26.8152-8.4682-36.4188,9.4331-18.3112.4277-9.5009-17.625-12.208-16.0917-21.0857.2527-1.4627,1.0382-1.0321,1.1098-1.1098,22.3349,13.7033,46.6516,72.4317,33.2931,93.7757-2.8284,4.5191-7.3784,5.8006-7.7684,6.1037Z" style="fill:#e9e1e0; stroke-width:0px;"/><path d="m718.4539,739.3066c-2.4488,1.0985-3.2361,2.5579-4.4391,3.3293-7.4958-1.8209-21.0468,6.0543-29.4089,6.6586-32.5657,2.3534-.1557-11.4629,9.9879-16.6466,1.2372-.058,8.4004,4.8633,23.8601,6.6586Z" style="fill:#0889b4; stroke-width:0px;"/><path d="m737.32,739.3066v1.1098c-8.3653.1406-25.9008,8.4311-31.0736,14.9819-11.8515,15.0087,6.1448-.9872,11.6526-2.7744,6.7719-2.1973,24.9898-3.0513,31.0736,0,10.0626,5.0467-1.3342,7.7298-1.6647,8.3233-.6452,1.1587,1.1932,1.729,1.1098,2.7744-.4841,6.068.24,13.3071-1.1098,19.421-1.2618,5.7155-8.2636,11.5545-5.5489,17.2015-7.8192,7.0739-17.202,10.3414-26.0796,15.5368,22.1433.3229,37.5501-20.7406,29.9638-1.1098,2.7603,1.691,38.4658-17.3805,15.5368,0-15.2199,11.5369-64.7158,21.7799-67.1411,24.415-.0715.0777-.8571-.353-1.1098,1.1098-33.0704-10.5037-54.5419,23.4193-87.117,26.6345-33.2335,3.2803-71.3088-5.3029-100.4343-21.6405,11.3003-6.2333,21.9992-14.2107,33.848-19.421,3.6307-1.5965,34.6913-13.0584,36.6224-13.3173,6.7255-.9016,36.0823,3.6542,8.8782-2.2195v-2.2195c32.3992-15.8591,36.0749-24.4569,76.5742-25.5247,14.8542,12.6993,23.951,12.9079,4.994.5549q.8323-.8323,1.6647-1.6647c15.0831-5.1687,58.7904,13.4357,23.3052-3.3293-4.5699-17.229,9.8689-27.2525,22.7503-35.5127,1.203-.7714,1.9903-2.2308,4.4391-3.3293,8.446.9808,10.2738,1.1177,18.8661,0Z" style="fill:#0889b4; stroke-width:0px;"/><path d="m550.3236,838.0762c12.3504-1.9899,16.8021,13.7739,4.4391,16.6466-24.4234,5.675-13.4054-15.2018-4.4391-16.6466Z" style="fill:#070706; stroke-width:0px;"/><path d="m645.7639,792.5756c19.6239,17.87,32.8392,39.6962,62.7021,37.1773-27.8009,11.3233-48.5113-17.7668-62.7021-37.1773Z" style="fill:#071415; stroke-width:0px;"/><path d="m741.7591,800.344c-2.7148-5.6469,4.287-11.486,5.5489-17.2015,1.3498-6.1139.6257-13.353,1.1098-19.421,11.2139-3.4031,8.5376,22.8746-6.6586,36.6224Z" style="fill:#035e7f; stroke-width:0px;"/><path d="m788.3695,793.6854c3.4808,23.8522-17.8633,27.3065-23.3052,33.848-6.2006,7.4535-7.6843,30.1197-42.1713,41.0615,9.5921,16.2941,21.1848,32.0207,26.0796,50.4946,21.2687.1261,42.5439-.1697,63.8118,0-20.9985,29.7931-59.1215,56.3618-97.105,46.6104-22.8222,20.3887-65.1282-13.392-48.275-18.8661-6.9537,10.0333,26.2511,28.5308,44.3908,19.421-7.9157-3.2453-17.4965-7.7281-21.0857-16.0917,12.521-2.2479,18.7754-3.2633,28.854-11.0977.39-.3032,4.94-1.5846,7.7684-6.1037,13.3585-21.344-10.9582-80.0723-33.2931-93.7757,2.4254-2.635,51.9212-12.8781,67.1411-24.415,22.929-17.3805-12.7765,1.691-15.5368,0,7.5863-19.6308-7.8206,1.4327-29.9638,1.1098,8.8776-5.1953,18.2604-8.4629,26.0796-15.5368,15.1962-13.7478,17.8725-40.0256,6.6586-36.6224.0834-1.0454-1.7549-1.6158-1.1098-2.7744.3305-.5935,11.7272-3.2765,1.6647-8.3233-6.0838-3.0513-24.3017-2.1973-31.0736,0-5.5078,1.7872-23.5041,17.7831-11.6526,2.7744,5.1728-6.5508,22.7083-14.8414,31.0736-14.9819,7.8649-.1322,27.1798,6.5278,32.1834,12.7624,7.3846,22.467,33.8761,27.6423,18.8661,40.5066Z" style="fill:#070706; stroke-width:0px;"/><path d="m773.3876,807.0026c.7162,1.6873.9308,5.653.5549,7.2135-1.8898,7.8443-11.9328,5.1921-.5549-7.2135Z" style="fill:#c47d26; stroke-width:0px;"/><path d="m450.9991,760.3922q.8323,1.1098,1.6647,2.2195c1.2904.543,1.7008-1.1921,2.7744-1.1098,5.5153.4226,15.6327-1.2677,23.8601,1.1098,10.486-3.3486,17.6731-1.6275,31.6285-5.5489v3.3293c-3.1219,5.4462,5.4813-.9245,17.2015,0,1.838.145,11.3315,7.0109,36.0676,2.2195,2.403,3.6544,10.9314,5.8627,3.3293,8.8782-60.2873-2.0738-120.6012-.4456-180.8927-1.1098-3.3285-.0366-6.6597.0447-9.9879,0-9.8739-.1326-74.5618.2264-78.2389-1.1098-.3096-.1125-1.222-2.4931-1.6647-3.3293,13.5688,1.1459,13.6676-2.1828,14.427-2.2195,12.8438-.6217,29.3454,5.9698,39.3969-6.6586,11.7523,7.7116,25.0035,2.1998,37.7322,2.2195,20.8933.0324,41.8026,2.3469,62.7021,1.1098Z" style="fill:#dbd7c4; stroke-width:0px;"/><path d="m660.7458,770.3802c-13.5681.9073-27.4597-.6708-41.0615,0,.8434-2.1557-1.8606-7.6742,4.4391-7.7684,13.5639,8.1544,33.8397-2.9317,38.842-4.4391,2.9535,4.0915,2.4507,9.1665-2.2195,12.2075Z" style="fill:#d8d0a8; stroke-width:0px;"/><path d="m660.7458,770.3802c4.6702-3.041,5.173-8.1159,2.2195-12.2075,2.1173-.638,19.3983-6.941,19.9759-2.7744-2.4134,2.6921-4.3541,12.3121-7.2135,13.8721-2.4578,1.341-11.4421.873-14.9819,1.1098Z" style="fill:#dbd7c4; stroke-width:0px;"/><path d="m450.9991,760.3922c-20.8995,1.2371-41.8087-1.0773-62.7021-1.1098-12.7287-.0198-25.9799,5.492-37.7322-2.2195-10.0515,12.6285-26.5531,6.0369-39.3969,6.6586q-.8323-1.1098-1.6647-2.2195c27.0716-3.6697,35.6892-14.2334,37.7322-14.427.7196-.0682,10.5357,4.6424,11.0977,4.4391,2.4109-.8719,1.4079-4.7382,1.6647-4.994,3.7605-3.7461,24.723,15.492,7.7684-3.3293,3.582-2.9759,10.7133,3.9599,12.7624,2.7744,2.5146-1.4547-3.7926-6.5279,0-6.6586,3.1205-.1076,7.2568,6.6632,7.7684,6.6586.3667-.0033,1.0195-3.9473,3.3293-3.3293,3.2041.8573.6951,16.6207,13.3173,12.2075,3.0775-1.076,5.2047-22.5619,46.0555,5.5489Z" style="fill:#070706; stroke-width:0px;"/><path d="m564.1957,762.6118c-24.736,4.7914-34.2296-2.0746-36.0676-2.2195-11.7201-.9245-20.3233,5.4462-17.2015,0,9.29-2.7819,17.2038-6.1516,26.0796,0,7.8712-2.9665,33.8641-16.9869,19.9759,0,16.8219-2.1043,38.6425-10.251,7.2135,2.2195Z" style="fill:#070706; stroke-width:0px;"/><path d="m670.7337,501.8156c-1.8311,81.0157-7.199,162.3585-5.5489,243.5947-20.2809,1.3672-26.675,16.1849-36.0676,14.9819-12.8155-1.6414-3.1299-17.5879-6.6586-18.8661-32.3745-.145-30.223,10.2616-5.5489,6.6586,2.2844.8124.7825,10.5608,7.2135,14.427-6.2997.0942-3.5957,5.6127-4.4391,7.7684-1.4675,3.7514,2.3952,1.5175-4.4391,6.6586-7.0708-2.0808-14.9813-1.3166-22.1954-2.2195-8.3804-1.0489-16.744-4.5674-25.5247-3.3293,7.6021-3.0154-.9263-5.2238-3.3293-8.8782,31.429-12.4705,9.6084-4.3238-7.2135-2.2195,13.8882-16.9869-12.1047-2.9665-19.9759,0-8.8758-6.1516-16.7896-2.7819-26.0796,0v-3.3293c3.1339-.8806,8.9482-6.168,12.7624-6.6586,6.5922-.848,15.4766,5.2023,17.2015-1.6647,2.3248-9.2555-5.0564-1.7482-7.2135-2.7744-.3885-.1848,2.1375-5.1659-3.3293-4.4391-.5787.0769-2.8531,3.3383-3.3293,3.3293-3.0087-.0564,2.7011-9.7245-8.8782,0-9.8305-7.7896-4.2138,9.728-11.0977,11.0977-21.429,5.7967-44.3602.4208-51.6044,5.5489-1.0736-.0823-1.4841,1.6527-2.7744,1.1098q-.8323-1.1098-1.6647-2.2195c-40.8508-28.1107-42.978-6.6249-46.0555-5.5489-12.6222,4.4132-10.1131-11.3502-13.3173-12.2075-2.3098-.6179-2.9626,3.3261-3.3293,3.3293-.5116.0045-4.6479-6.7662-7.7684-6.6586-3.7926.1307,2.5146,5.2039,0,6.6586-2.0491,1.1854-9.1804-5.7504-12.7624-2.7744,16.9546,18.8213-4.0078-.4168-7.7684,3.3293-.2567.2558.7463,4.1221-1.6647,4.994-.562.2033-10.3781-4.5073-11.0977-4.4391-2.043.1936-10.6606,10.7573-37.7322,14.427q.8323,1.1098,1.6647,2.2195c-.7594.0368-.8582,3.3655-14.427,2.2195-8.2718-15.6243,23.5823-3.4147,20.5308-15.5368q8.8782,1.6647,17.7563,3.3293c15.1251-16.5636,1.113-4.8239-3.3293-5.5489-2.3865-.3895-6.3093-5.8054-6.6586-5.5489-1.2922.949.4905,5.8092-2.2195,6.6586-1.8695.5859-13.5058-12.2846-9.9879,3.3293-6.9329-10.2732-3.885-2.2282-5.5489-1.1098-2.7112,1.8225-13.0832-3.3666-16.0917-12.7624-1.2698-77.4189-6.8431-154.7237-12.2075-231.9422q3.3293-2.497,6.6586-4.994c50.467-1.0855,363.5004-5.6152,382.3161-2.2195.5871.1059,1.5083,2.2437,2.7744,2.2195Z" style="fill:#f9e6c2; stroke-width:0px;"/><path d="m472.6396,611.6829c35.8782-5.594,38.9018,42.3896,8.8782,46.6104-34.6141,4.8661-37.1879-42.1964-8.8782-46.6104Z" style="fill:#070706; stroke-width:0px;"/><path d="m510.9267,757.0629c-13.9554,3.9213-21.1424,2.2002-31.6285,5.5489-8.2274-2.3775-18.3448-.6872-23.8601-1.1098,7.2442-5.1281,30.1754.2478,51.6044-5.5489,6.8839-1.3697,1.2672-18.8873,11.0977-11.0977,11.5793-9.7245,5.8695-.0564,8.8782,0,.4762.0089,2.7506-3.2524,3.3293-3.3293,5.4668-.7268,2.9408,4.2542,3.3293,4.4391,2.1572,1.0263,9.5383-6.4811,7.2135,2.7744-1.7248,6.867-10.6092.8167-17.2015,1.6647-3.8142.4906-9.6285,5.7781-12.7624,6.6586Z" style="fill:#070706; stroke-width:0px;"/><path d="m544.7747,750.4043c1.8324.1842-1.0118,4.4875-1.6647,2.7744-.4294-1.1266,1.4923-2.7918,1.6647-2.7744Z" style="fill:#524230; stroke-width:0px;"/><path d="m580.8423,199.9578c-3.8831-.2273-9.9908,3.3008-10.5428,3.3293-10.7435.5547-33.161-4.5078-42.1713,3.3293-10.8177,9.4092,4.9603.5585,13.3173,1.1098,2.2307.1472,12.884,4.0618,14.9819,5.5489,9.6534,6.8427,5.46,11.479,5.5489,12.2075-10.5858,18.477-9.5398-3.9668-25.5247,2.7744,16.3789,6.7276-6.1205,5.4704-12.7624.5549-1.7745,5.7415-8.1665,8.8287-6.1037,14.427,2.7585,7.4864,14.6961,6.3479,15.5368,8.3233-5.779,17.6667-1.3547,31.3809,13.8721,41.6164,11.0567-16.9202,16.2103-32.2026,9.4331-52.1592,3.2073-1.9013,7.177-8.052,7.7684-5.5489-2.2769,15.9605,24.6869,45.2142,5.5489-23.3052.3975-1.4016,1.7154-4.1436,3.3293-4.4391,3.9179-2.0368,11.251-1.6083,11.0977-5.5489,8.5772,1.0623,8.1621-6.4035,17.2015-1.1098q1.9421,10.2654,3.8842,20.5308c-3.9332,2.5719.6554,4.0637-3.3293,11.0977-3.1004,5.4731-15.7888,14.0902-22.1954,16.6466,1.026,13.9222-.2577,16.8376-4.4391,28.2992-.0876.2403-2.5412,3.107-3.3293,3.8842q.8323.8323,1.6647,1.6647c5.849.4733,12.6213-.6507,18.3112,0,35.6166,4.073,32.7608,16.9186,36.0676,17.7563,14.1761-5.7915,57.3469-5.0319,61.5923,13.8721-2.257,11.67,7.6085,30.5978,5.5489,39.3969-1.1825,5.0514-9.6383,5.896-1.6647,9.9879,11.2204,5.7581,61.3769,5.5086,57.1532,69.3607,13.6531,33.86,23.2188,52.4624,6.6586,87.6719,36.3239,32.5422,20.8526,47.0026,21.0857,49.9397.0387.4884,4.5047,8.3481,4.994,8.3233,1.5789-.08,9.6213-18.0166,10.5428,17.2015.0085.3234-3.4592,3.2837-3.3293,5.5489q3.8842,20.5308,7.7684,41.0615c-1.5022,12.2678-10.2375,29.4193-12.2075,38.842-1.0821,5.1757,9.0362,49.6262-48.8299,57.1532-8.5923,1.1177-10.4201.9808-18.8661,0-15.4596-1.7953-22.6228-6.7166-23.8601-6.6586-10.1436,5.1837-42.5536,19-9.9879,16.6466,8.3621-.6043,21.9131-8.4795,29.4089-6.6586-12.8814,8.2602-27.3203,18.2837-22.7503,35.5127,35.4852,16.765-8.2221-1.8393-23.3052,3.3293q-.8323.8323-1.6647,1.6647c18.9571,12.353,9.8603,12.1444-4.994-.5549-40.4993,1.0678-44.175,9.6656-76.5742,25.5247v2.2195c27.2041,5.8737-2.1526,1.3179-8.8782,2.2195-1.9311.2589-32.9917,11.7207-36.6224,13.3173-11.8488,5.2103-22.5477,13.1877-33.848,19.421,29.1255,16.3376,67.2008,24.9208,100.4343,21.6405,32.5751-3.2152,54.0467-37.1382,87.117-26.6345-1.5333,8.8776,16.5194,11.5848,16.0917,21.0857-17.9012-18.1075-12.8376-8.5039-9.4331,18.3112,3.7352,4.7364,3.7779-2.3411,4.994-2.7744,2.5208-.8982,24.3028,30.0871,21.6405,47.1653-.3726,2.3901-4.1897,8.0391-5.5489,11.6526-16.1537,12.0476-22.6715,10.1658-39.9518,7.7684-1.5636-.217-5.6969-3.2784-6.1037-3.3293-3.5513-.4444-62.1599,6.4776-71.0253-1.1098-1.1674-.9991-1.4922-4.148-1.6647-4.4391-.1907-.322.7438-5.3081-2.7744-6.6586-8.315-3.1917-10.6481,9.6571-10.5428,15.5368-4.5529-.8205-20.8385-2.8011-23.8601-4.4391-2.1595-1.1707-4.6587-9.6415-5.5489-9.9879-1.5086-.5872-11.62,7.6115-15.5368,8.8782-16.6552,5.3865,7.5034-5.041-4.4391-13.3173-10.611-7.3535-13.258,3.7377-15.5368,3.3293-1.2935-.2318-1.7755-3.7683-3.3293-4.4391-19.2061-8.2912-45.3017-12.7436-64.3667-25.5247q-14.9819,19.421-29.9638,38.842h-65.4765c-1.1382-1.024-2.0394-1.9363-2.7744-3.3293-2.3042-4.367-1.441-11.3081-1.1098-16.0917,32.7438,23.1012,20.678-30.4115-14.9819-22.7503-16.1245,3.4642-25.9812,24.4083-16.6466,29.9638,14.6273,8.7054,12.5701-7.66,13.8721-10.5428,8.9825-19.8875,35.9478-8.9684,24.9698-4.994-.481.1741-3.0207-3.5139-9.9879-2.2195-13.1827,2.449-9.9213,21.3592-3.8842,28.854-25.5145,3.1642-52.6114.8673-78.2389,0-12.8642,7.8388-27.3673,12.057-42.1713,14.427-6.9168,32.2396-49.8393,29.2413-42.7262,12.7624,7.612-17.6346,38.7425,2.8841,36.6224-14.9819,7.7373.1895,24.786-5.9036,31.6285-9.9879,39.0493-23.3091,18.2038-72.459,14.427-74.3547-12.8379-6.4438,9.6806,13.7777,3.8842,43.836-4.2139,21.8519-32.6622,38.3659-53.269,39.3969-50.69,2.5361-50.418-56.4137-32.1834-89.3366,5.8958-10.6448,16.603-16.4726,12.2075-20.5308,25.9716-20.1947,73.9914-9.7865,36.0676-19.9759-6.7787-3.5103-12.969-13.688-12.7624-21.6405-24.0726-10.4275,13.8027-55.4109,29.9638-59.9276-13.361-.4083-12.0784-6.7938-12.7624-7.2135-4.4795-2.7494-16.0834-4.914-23.8601-20.5308-6.1725-12.3952-7.7227-35.2083-3.3293-48.275,10.8392-32.2376,12.8875,16.6846,14.9819,16.6466q5.2714-8.0458,10.5428-16.0917c.3757-3.5209-10.7394-8.2344-17.7563-16.0917,2.8291.4361,16.7156,7.0713,17.7563,4.994-1.4547-2.0645-3.9159-3.1813-5.5489-4.994,1.2637-3.2036,5.5479,1.2393,6.6586,1.1098,4.7051-.5485,11.8164-10.9524,32.1834-1.6647-7.1009-7.6188-23.5069-8.197-31.0736-1.6647-1.4558-2.0618-9.7733-7.203-11.0977-7.7684-1.6414-.7007-2.3807-2.5296-3.8842-2.2195-3.8645,2.5378-5.0122,6.369-7.2135,9.9879-3.2201,5.2938-6.0996,10.3026-6.6586,16.6466-8.504-1.4628,7.574-50.2492,8.8782-57.1532,5.8647.1554,8.9482-10.3887,11.0977-14.9819,1.3999-2.9915,2.3066-4.1692,3.3293-7.7684,1.595-5.6129,4.4262-7.5366,2.2195-18.3112,9.5295-8.8851.9627-33.9057,2.2195-42.1713.3702-2.4343,15.7242-22.6173,18.8661-34.9578,5.7457,3.0311-5.065,22.2304,2.2195,31.6285q-3.8842,6.3812-7.7684,12.7624c-2.2724-2.8981-3.2723-8.7327-4.994-12.2075-6.2798-1.3559,5.6955,47.0606,7.2135,50.4946,4.433,10.0279,15.2137,14.5721,22.7503,21.6405.9313-20.2556-6.5374-67.5979-6.1037-77.684.0872-2.0279-.0596-4.0733,0-6.1037q1.1098-.8323,2.2195-1.6647c1.341-.3465,6.3765-2.0108,6.6586-2.2195q2.2195,1.1098,4.4391,2.2195-3.3293,2.497-6.6586,4.994c5.3644,77.2184,10.9377,154.5233,12.2075,231.9422,3.0085,9.3958,13.3805,14.5848,16.0917,12.7624,1.6638-1.1184-1.384-9.1634,5.5489,1.1098-3.5178-15.6139,8.1185-2.7434,9.9879-3.3293,2.7101-.8494.9274-5.7097,2.2195-6.6586.3493-.2565,4.2721,5.1594,6.6586,5.5489,4.4423.725,18.4544-11.0147,3.3293,5.5489q-8.8782-1.6647-17.7563-3.3293c3.0515,12.1221-28.8026-.0875-20.5308,15.5368.4427.8362,1.355,3.2168,1.6647,3.3293,3.6771,1.3361,68.3649.9772,78.2389,1.1098.2092,4.3867,30.6151,25.4888,32.7382,25.5247,8.2354.1393-14.4295-15.8242-22.7503-25.5247,60.2915.6641,120.6053-.964,180.8927,1.1098,8.7808-1.2381,17.1444,2.2804,25.5247,3.3293-10.8077,5.0499-47.6948.3173-52.7141,2.2195-1.5246.5778-6.8236,12.5255-7.7684,12.2075,7.6118-33.206-13.8579-2.3639-11.6526,19.421,1.6494,16.2935,15.7628,7.3738,27.1894,2.7744,4.6089-1.8552,64.1267-32.1353,67.1411-34.4029,6.8343-5.1411,2.9715-2.9073,4.4391-6.6586,13.6018-.6708,27.4934.9073,41.0615,0,3.5398-.2367,12.5241.2312,14.9819-1.1098,2.8594-1.5601,4.8001-11.18,7.2135-13.8721-.5776-4.1666-17.8586,2.1364-19.9759,2.7744-5.0023,1.5074-25.2781,12.5934-38.842,4.4391-6.431-3.8662-4.9291-13.6146-7.2135-14.427-24.6741,3.603-26.8257-6.8036,5.5489-6.6586,3.5287,1.2782-6.1568,17.2248,6.6586,18.8661,9.3925,1.203,15.7867-13.6147,36.0676-14.9819-1.6502-81.2362,3.7178-162.5791,5.5489-243.5947,2.7219-.084-2.5377-4.179-3.8842-4.4391-12.3749-2.3902-109.9132,2.2513-117.6357,0-.9392-.2738-2.0174-2.1272-1.6647-3.3293,1.6912-.1172,6.9756.5556,7.7684-.5549-11.3399-30.3943-10.6557-51.0659,4.4391-79.9035-6.8137.8188-18.8303,2.697-22.1954,8.3233l-3.3293-2.2195c4.3483-8.3904,12.2793-11.6912,9.4331-19.9759-47.4904,11.2894-68.4632-16.628-72.1351-15.5368-1.6488.49-4.4618,11.684-3.8842,12.7624.1951.3643,4.4594,1.2782,7.7684,2.7744v4.4391c-18.7165-7.8771-45.8289-2.2476-42.1713-24.9698-1.3619-3.4995-27.3221-8.8753-28.854-1.1098,19.8686,2.3664-21.6301,9.7822,2.2195-7.7684-.3972-1.3808-18.6617-3.8317-19.9759-6.6586-2.1528-4.6308,9.33-21.7131-11.6526-13.8721-11.8372,4.4235-6.9864,17.5831.5549,23.3052-12.5334-9.4192-6.1927-9.2856-12.2075-19.9759-10.572-18.7898-22.3392-5.98-3.8842,22.1954-23.4269-12.6269-57.4636,15.6502-59.3728,24.9698-2.5156,12.2804,8.1128,11.6464,6.6586,21.0857-.2515,1.6327-8.1617,12.5403-9.9879,17.2015-6.9898,2.2451-3.5195,16.0871-7.7684,15.5368-.0592-13.0278,1.3058-26.0467-4.4391-38.2871,30.9118-29.8481,10.3914-31.7279-2.2195-12.2075-9.6951,15.007,1.7338,16.3666,1.1098,32.1834q-4.994-5.5489-9.9879-11.0977c-.7559,20.2719.828,40.1131-4.4391,24.415-.1161-.346-.9909-6.0235-1.1098-7.2135-4.7232-47.2975,38.4419-70.5446,78.2389-78.7937,2.1577-2.582-4.9975-24.6027,6.6586-35.5127,29.3608,13.3887,31.2473-22.3348,48.8299-35.5127,4.4758-3.3545,21.2647-11.5855,26.6345-13.3173,10.1265-3.2658,18.6627-2.2258,28.2992-6.1037,4.0465-18.3866-12.6596-8.9482-23.3052-24.415-8.5288-12.3913-11.4215-38.0116,7.7684-40.5066-2.7034,7.7194,12.8892,14.2446,14.427,17.7563,1.2501,2.8548-.0118,5.2716,0,5.5489-14.7349-11.9492-7.8993,5.8099-1.1098,8.8782.4188,4.6163,1.0463,9.2335,1.1098,13.8721,1.4991,4.8541,4.3257,9.9822,4.4391,10.5428.2442,1.2076-1.3889,11.5011,4.4391,23.8601q14.9819,17.4789,29.9638,34.9578c-3.3741-1.659-2.9878-4.9822-5.5489-1.1098-2.7633-2.7093-4.4185-6.1013-5.5489-4.994q-1.1098,23.3052-2.2195,46.6104,13.3173,7.491,26.6345,14.9819c-.1612.1672-.5905,2.6425-3.3293,2.2195-.6805-1.0729-20.3853-13.5137-21.6405-13.3173-1.8678.2922-5.0996,9.9692-4.994,10.5428.1641.8909,12.7647,11.0575,13.8721,11.6526,15.3382,8.2422,58.6913,8.7685,59.3728,0,.4202-5.4075-1.9202-.0318-4.994-1.1098-5.7601-2.0201,15.1584-17.3081,16.0917-28.2992,1.299-15.2971-11.8754-8.1302-20.5308-19.421-2.0646-.3973-12.8303,8.9531-28.2992,3.3293-.2213-.0804-.7922-1.9452-3.3293-3.3293q1.1098-2.7744,2.2195-5.5489c6.6004.6929,13.9639-6.3945,18.8661-9.9879,9.684-7.0985,40.5814-39.4267,38.842-43.836-3.7741-9.5673-28.2999,28.248-34.9578,32.7382-.5884.3968-8.9181,4.358-9.4331,4.4391-2.0499.3227-7.6595.2316-9.9879,0-10.3387-1.0285-15.5676-5.7393-24.415-9.9879-6.228-7.4608-8.4987-6.2538-8.8782-6.6586-.5316-2.6671,2.6908-7.5377,4.4391-8.8782.3206-.2458,4.3903-.6302,7.7684-2.2195,4.3212,1.8186,10.6741,1.2233,15.5368,1.1098,30.957-.7224,5.401-8.096-8.3233-6.6586-1.4806-1.2127-1.7978-2.8142-2.7744-4.4391-2.8267-4.7031-1.9577-8.5498-3.3293-13.3173q1.1098-.5549,2.2195-1.1098c.7077,2.2539,6.7592,5.5752,7.2135,5.5489,4.3592-.2531,6.4095-32.3061,7.2135-37.7322.2425-1.6367.8055-3.7482,1.1098-5.5489.1189-.7035-.1294-1.5212,0-2.2195.7193-3.8824,3.0028-4.9583,3.3293-7.7684.0256-.2205.0688-4.2281,0-4.4391q3.3293-3.6068,6.6586-7.2135c-1.0243-2.2215-7.3674,2.3657-8.8782,2.7744-3.2268.8731-2.1104-.0199-2.2195,0,13.2334-31.0353,37.535-21.6572,40.5066-23.3052-4.9869-33.562-29.3935-24.3019-53.8239-24.415-12.2043-.0565-23.9772-.3603-36.0676-2.2195-.4322,5.5251-1.6029,5.2659-1.6647,5.5489-4.5672,2.4554-7.7969,22.8885-11.0977,31.0736-.2381.5903-4.2011-1.0345-4.4391,11.0977-.5188-.2736-2.3039.6383-2.2195-1.1098,2.5839-3.8551-4.7326-21.7477-6.1037-28.854-2.0801-1.9162-16.5483,2.7532-8.3233-29.4089-10.8864,7.2615-8.8134-19.0332-4.4391-25.5247-10.9392,1.6565,12.4531-22.1001,13.8721-21.6405,1.0032.3249-.4968,5.2048,3.8842,2.7744,2.6688-18.3951,16.9252-36.7653,36.0676-23.8601,16.4193-36.6199,40.4746-10.1916,43.2811-9.9879,3.5524.2577,7.2451-7.6014,7.7684-7.7684,4.4698-1.4262,22.0709,9.2375,23.3052,15.5368,17.2635-7.1599,33.995,10.3951,31.6285,28.2992,29.1448,32.8828,13.6042,25.4542,12.2075,31.0736-.312,1.2553,4.4018,13.3499,1.1098,25.5247-3.0148,11.1496-15.8247,11.8847-16.6466,37.1773Z" style="fill:#070706; stroke-width:0px;"/><path d="m722.893,633.8783c58.3644,6.2357,47.2244,26.275,49.9397,39.3969.7672,3.7073,5.0677,11.5081,5.5489,15.5368,3.7398,31.3117-22.4651,44.2972-49.9397,41.0615,12.1662-19.0728,23.6849-13.5806,31.0736-45.5006-3.768-18.2871-29.8208-32.8799-47.1653-34.9578-26.6059-3.1873-28.2561,9.9287-14.9819-11.0977,7.2709-5.1806,4.5876-1.8255,8.8782-2.2195.2763-.0254-.9869.8881,5.5489,0,4.1514-.5641,6.6565-1.9649,11.0977-2.2195Z" style="fill:#f1841d; stroke-width:0px;"/><path d="m649.0932,866.9303c-.1975,49.89-2.5193,30.9365-11.0977,38.842-9.077,8.3649,3.8417,17.5241,15.5368,9.9879,8.4077,15.9102,18.7522,21.6763-7.7684,13.3173-10.5117-3.3132-18.8405-11.2259-19.9759-11.0977-4.0588.4584,1.1882,8.9789-4.4391,12.2075-.5776.3314-10.8365,1.9164-13.3173,0-5.0742-3.9196,1.6322-7.5891,1.6647-8.3233.1787-4.0405.3053-33.7635,0-35.5127-1.0245-5.8694-7.5489-6.2341-8.8782-2.2195-3.1252,9.438,12.3322,50.438-11.0977,36.6224-.8458-14.4479-7.908-56.7477,19.421-48.275,6.1171,1.8964,9.1406,22.1516,21.0857,16.6466q1.1098,9.4331,2.2195,18.8661c4.2196-14.232,8.5774-28.4138,16.6466-41.0615Z" style="fill:#e9e1e0; stroke-width:0px;"/><path d="m677.9472,848.0641c14.6502-1.3929,38.4257,68.7834,9.9879,73.2449-34.0623,5.3439-30.5274-71.292-9.9879-73.2449Z" style="fill:#fdfcfc; stroke-width:0px;"/><path d="m706.2464,636.0979c-4.2905.394-1.6073-2.961-8.8782,2.2195,15.2705-24.1887,11.0569-25.0781,44.3908-31.6285-23.3855-7.2584-34.0113,11.4523-44.3908-12.2075,4.1463-5.5487,36.0114-22.7419,36.6224-25.5247.1431-.6515-2.8041-11.9018-3.8842-12.7624-2.3721-1.89-14.2166-1.1133-14.9819-3.8842,13.9609-24.4442,40.2965-44.1122,43.836-72.69,8.7185,30.8347-23.072,50.789-23.8601,59.3728q3.3293,16.6466,6.6586,33.2931c-72.8787,56.3684-10.085,10.9069,13.3173,41.0615-17.3602,5.2252-34.4837,11.003-48.8299,22.7503Z" style="fill:#f8b742; stroke-width:0px;"/><path d="m236.8132,628.3295q-1.1098-6.6586-2.2195-13.3173c7.2627-6.9023,14.5626-13.2957,15.5368-22.1954.0859-.785,1.7266-1.9596,1.1098-5.5489,12.5627.0731,18.9354,5.0507,28.854,12.7624q1.1098,17.7563,2.2195,35.5127c-18.1293-8.5328-26.4949-8.4956-45.5006-7.2135Z" style="fill:#f1841d; stroke-width:0px;"/><path d="m669.624,334.2401c3.7717,4.7334,11.1155-6.1194,7.7684-9.9879.1225-.0652-.0021-.9988,1.6647-2.2195,14.2476,41.4662,8.2931,25.0462-9.9879,29.9638-10.4587,2.8134-17.6673,14.3123-18.8661,14.427-2.3676.2265-2.778-16.4694-40.5066,11.6526,10.902,6.3001,30.1286-7.1966,29.9638,1.1098-.2644,13.3338-39.8218,15.8283-37.7322,4.4391.1615-.88,7.8971-14.3417,8.8782-15.5368,13.409-16.3344,40.657-16.2097,58.8179-33.848Z" style="fill:#115822; stroke-width:0px;"/><path d="m439.3465,327.5815q1.3872.2774,2.7744.5549c14.1282,30.3628,26.7691,24.1923,19.421,67.1411-11.4415-.3282-38.7688-13.3305-17.2015-19.421-19.5363-4.212-20.9737-42.6718-.5549-14.9819,1.5304-.6723-3.6776-19.4459-19.421-22.7503q7.491-5.2714,14.9819-10.5428Z" style="fill:#0889b4; stroke-width:0px;"/><path d="m680.1668,654.964c1.6297-.0433,19.5674,7.1689,22.1954,8.8782,26.1946,17.0364,22.6776,65.4702,14.427,65.4765-3.2954-3.4996,6.3512-12.1696,1.6647-28.2992-.9616-3.3095-17.7116-25.3192-21.6405-31.6285,12.6673,33.8695,28.1395,78.4591-1.6647,40.5066,6.5486-18.8876-5.0643-42.8305-24.415-48.8299-.3614-2.5029,8.8715-6.0888,9.4331-6.1037Z" style="fill:#f89d27; stroke-width:0px;"/><path d="m235.7035,693.806c.5765-7.2372,16.0796-31.7992,21.0857-39.9518,22.9787-2.8011,30.3657,11.8107,26.6345,19.421-.9287,1.8943-21.8334,6.4646-28.854,28.854-6.4358,20.5242,5.0721,19.7112,1.6647,23.8601-20.2152-8.2809-14.9857-35.566,1.1098-46.6104,14.5159-9.9605,25.5298-4.326,21.6405-10.5428-6.2612-10.0082-32.406,2.5374-37.7322,23.3052.9129,35.8509-6.4517,12.9996-5.5489,1.6647Z" style="fill:#f1841d; stroke-width:0px;"/><path d="m604.7023,359.7649c3.6065.3517-13.1986,28.1837-17.7563,32.1834-5.7536,5.0491-39.6742,18.2383-41.6164,14.9819-.201-.337.9397-7.4148,1.1098-7.7684,1.0979-2.2827,9.9093-5.0576,11.0977-6.6586.6297-.8483,2.27-12.325,8.3233-19.421,22.9377-5.5251,36.6651-18.7411,13.8721,6.1037q.8323.2774,1.6647.5549,11.6526-9.9879,23.3052-19.9759Z" style="fill:#0889b4; stroke-width:0px;"/><path d="m407.1631,323.1424c6.6452,18.004,15.583,34.6665,25.5247,51.0495-3.4455,2.0874-22.1657-10.205-26.6345-12.2075-8.2232-3.6848-19.7332.0929-6.1037-11.6526-8.0525-5.5295-10.4613-9.6149-21.0857-12.2075,15.6756-21.9397,9.7266-3.3119,13.8721-2.7744.9371.1215,11.1216-11.5183,14.427-12.2075Z" style="fill:#0889b4; stroke-width:0px;"/><path d="m728.4418,693.806c4.0542,5.2837-1.3926,3.1999,6.6586-7.2135q-6.3812-7.491-12.7624-14.9819c-2.3814-.1858-.8128,4.2811-.5549,5.5489-6.4573-10.1856-14.7558-19.0688-26.6345-22.7503,15.4953-2.9149,32.7508,7.9843,43.836,18.3112,15.3547,14.3046,18.8457,19.4887,2.2195,35.5127-.8863-.3585-5.652-23.3015-8.3233-14.9819-3.1423,9.7865-.941,38.5806-4.4391.5549Z" style="fill:#f1841d; stroke-width:0px;"/><path d="m722.893,633.8783c-4.4412.2547-6.9463,1.6554-11.0977,2.2195,14.1666-9.9898,48.0944-7.3959,63.8118-2.2195,24.7097,8.1378,16.0974,15.0194,5.5489,43.2811-8.3024.1399,14.0119-47.4256-58.263-43.2811Z" style="fill:#f89d27; stroke-width:0px;"/><path d="m567.525,447.4368c-.7174,6.4828,4.9112,28.7572,7.7684,36.6224-1.6855,4.3283-1.515,6.337-3.3293,9.9879-8.2757-.1806-13.7077,2.2155-16.6466-24.9698-.7899-7.3073-.0184-15.4614,1.1098-22.7503q5.5489.5549,11.0977,1.1098Z" style="fill:#115822; stroke-width:0px;"/><path d="m388.297,874.6987c26.1724,7.3186,7.5098,7.4385,15.5368,34.4029-1.1272,1.3012-23.8987-.1327-24.9698-3.8842q4.7165-15.2594,9.4331-30.5187Z" style="fill:#0889b4; stroke-width:0px;"/><path d="m594.1595,347.5574c-1.765-3.4769-5.339-5.6341-3.3293-7.7684,14.8328-11.2402,30.7363-32.5348,17.2015,4.4391,25.9216-35.0134,3.6858,9.5621,18.8661-5.5489,10.5098,5.3183-8.8024,15.4677-9.9879,15.5368-1.1832.069-17.2281-6.888-22.7503-6.6586Z" style="fill:#0889b4; stroke-width:0px;"/><path d="m584.1716,435.2293c-5.8789,2.4874-15.8184,4.724-16.6466,12.2075q-5.5489-.5549-11.0977-1.1098c2.0618-13.3217,23.9826-39.2836,27.1894-38.842,1.7865.246.536,25.6787.5549,27.7443Z" style="fill:#166d31; stroke-width:0px;"/><path d="m584.1716,438.5586c-2.3934,6.9943-1.131,14.0483,0,21.0857.0197.1225.4116-.8962,1.1098,2.2195-3.4634,1.3934-3.468,8.7771-4.4391,11.0977-1.5215,3.6356-3.9144,6.9006-5.5489,11.0977-2.8572-7.8652-8.4858-30.1396-7.7684-36.6224.8282-7.4835,10.7677-9.72,16.6466-12.2075.0102,1.1083-.0434,2.223,0,3.3293Z" style="fill:#04150b; stroke-width:0px;"/><path d="m256.7891,653.8542c-5.0061,8.1526-20.5092,32.7146-21.0857,39.9518-7.9053-.3963-2.0302,5.7202-3.8842,7.7684-12.2393,13.5216-4.1442-44.1711,24.9698-47.7202Z" style="fill:#e0e4e5; stroke-width:0px;"/><path d="m736.7651,486.2788c1.2666.4448-1.9533,13.7972-3.8842,17.2015-1.222,2.1544-34.7116,32.9724-37.1773,32.7382-1.2576-.1194-4.3268-7.9448-3.8842-9.4331,1.1382-3.8274,38.7532-22.1632,34.4029-32.1834,6.1608,2.3616,6.9571-4.7246,10.5428-8.3233Z" style="fill:#e76b0f; stroke-width:0px;"/><path d="m580.2874,898.0038c1.5584.3318,4.2875,30.087,3.8842,31.6285-2.7951,10.6828-20.277,1.2389-19.9759-4.4391.0837-1.5775,14.7419-23.0855,16.0917-27.1894Z" style="fill:#0889b4; stroke-width:0px;"/><path d="m284.5334,706.0135c1.0971,8.2246,1.9462,16.1552.5549,24.415.0732-24.0914-23.0293,6.6802-27.1894-9.4331-.6157-2.3847.5882-4.9302,1.1098-7.2135,9.5723.8215,17.4612-3.3007,25.5247-7.7684Z" style="fill:#e76b0f; stroke-width:0px;"/><path d="m671.2886,360.8746c2.7171,1.4193-6.5066,16.0878-12.2075,19.9759-22.0767,15.0567-26.4945-4.4869,12.2075-19.9759Z" style="fill:#115822; stroke-width:0px;"/><path d="m251.2403,587.2679c.6168,3.5893-1.0238,4.7638-1.1098,5.5489-42.017,41.1492-27.6658-2.6168-3.8842-6.6586,5.213-.886,4.7382,1.1083,4.994,1.1098Z" style="fill:#f9e6c2; stroke-width:0px;"/><path d="m641.3248,858.0521q.8323.8323,1.6647,1.6647c-11.4924,14.4486-12.1605,37.8085-31.0736,13.3173.2247-1.6461,19.4727-5.268,29.4089-14.9819Z" style="fill:#e9e1e0; stroke-width:0px;"/><path d="m674.6179,528.4501c4.0275,22.666,9.5943,47.8776-3.3293,68.8058q1.6647-34.4029,3.3293-68.8058Z" style="fill:#c47d26; stroke-width:0px;"/><path d="m221.2764,643.8663c7.017,7.8573,18.132,12.5708,17.7563,16.0917q-5.2714,8.0458-10.5428,16.0917c-2.0944.038-4.1427-48.8842-14.9819-16.6466.1249-.9942-.3014-.9707-1.1098-1.1098.559-6.344,3.4385-11.3528,6.6586-16.6466-.1183,1.0604.9087.7517,2.2195,2.2195Z" style="fill:#f8b742; stroke-width:0px;"/><path d="m590.8302,339.789c-2.0097,2.1343,1.5643,4.2915,3.3293,7.7684-10.221.4071-24.3724,25.674-27.7443,14.9819-2.1156-6.7086,19.465-18.9992,24.415-22.7503Z" style="fill:#3b1406; stroke-width:0px;"/><path d="m386.6323,770.3802c8.3208,9.7005,30.9857,25.6641,22.7503,25.5247-2.1232-.0359-32.529-21.138-32.7382-25.5247,3.3282.0447,6.6595-.0366,9.9879,0Z" style="fill:#0889b4; stroke-width:0px;"/><path d="m284.5334,706.0135c-8.0635,4.4677-15.9524,8.5899-25.5247,7.7684.4497-1.9687.6681-6.8902,2.7744-7.7684,22.1355,1.5173,20.4554-17.2044,22.7503,0Z" style="fill:#bdb7b1; stroke-width:0px;"/><path d="m584.1716,472.9615v20.5308c-.7213,1.0174-10.2988.5965-12.2075.5549,1.8144-3.6509,1.6438-5.6597,3.3293-9.9879,1.6344-4.1971,4.0274-7.4621,5.5489-11.0977-.2214,1.3718,2.7912.1956,3.3293,0Z" style="fill:#166d31; stroke-width:0px;"/><path d="m246.2463,562.853c11.0467,26.38,25.8344,14.9701-7.2135,19.421q3.6068-9.7105,7.2135-19.421Z" style="fill:#f89d27; stroke-width:0px;"/><path d="m236.8132,628.3295c-2.3717.16-13.8383,2.5823-14.427,1.6647-4.862-7.5788,11.4319-14.2448,12.2075-14.9819q1.1098,6.6586,2.2195,13.3173Z" style="fill:#f9e6c2; stroke-width:0px;"/><path d="m728.4418,693.806c-2.4715-3.221-5.8289-12.5678-6.6586-16.6466-.2579-1.2677-1.8265-5.7347.5549-5.5489q6.3812,7.491,12.7624,14.9819c-8.0513,10.4134-2.6044,12.4972-6.6586,7.2135Z" style="fill:#cc6a0d; stroke-width:0px;"/><path d="m230.1546,633.8783c-5.3217,5.2632.3237,6.6516,3.3293,9.9879,1.633,1.8127,4.0942,2.9295,5.5489,4.994-1.0408,2.0774-14.9272-4.5579-17.7563-4.994-1.3109-1.4678-2.3378-1.1591-2.2195-2.2195,2.2013-3.6189,3.349-7.4501,7.2135-9.9879,1.5035-.31,2.2428,1.5189,3.8842,2.2195Z" style="fill:#f9f2df; stroke-width:0px;"/><path d="m670.1788,696.0255c9.2785,2.1571,9.3445,18.9189,6.6586,19.9759-7.5323,2.9642-8.7973-15.0952-6.6586-19.9759Z" style="fill:#b45d1d; stroke-width:0px;"/><path d="m411.6022,772.5997c12.4193-.2146,37.3927,30.6701,12.2075,12.2075-4.1618-3.0509-9.3034-7.8194-12.2075-12.2075Z" style="fill:#0d72a6; stroke-width:0px;"/><path d="m283.9785,688.2571c7.1214,5.5574-10.3444,13.7142-13.3173,16.6466-2.225-7.9186,12.4261-17.342,13.3173-16.6466Z" style="fill:#ebb79e; stroke-width:0px;"/><path d="m671.2886,674.9399c1.9558-.2773,9.3438,11.3811,5.5489,14.427-5.2709,4.2307-10.784-13.6847-5.5489-14.427Z" style="fill:#8e2b0d; stroke-width:0px;"/><path d="m240.1426,644.976c-.239-.987.6089-2.897,1.1098-3.3293,7.5666-6.5323,23.9727-5.9542,31.0736,1.6647-20.367-9.2877-27.4782,1.1162-32.1834,1.6647Z" style="fill:#e6a359; stroke-width:0px;"/><path d="m231.8193,708.233c3.532.7894,5.3,11.7581,4.4391,12.2075-3.0989,1.6174-17.7869-15.1907-4.4391-12.2075Z" style="fill:#f89d27; stroke-width:0px;"/><path d="m241.2523,641.6467c-.5008.4324-1.3488,2.3423-1.1098,3.3293-1.1107.1295-5.3949-4.3134-6.6586-1.1098-3.0056-3.3363-8.651-4.7247-3.3293-9.9879,1.3244.5654,9.6419,5.7066,11.0977,7.7684Z" style="fill:#783711; stroke-width:0px;"/><path d="m417.151,805.8928c8.5864-2.3196,25.8962,14.754-2.2195,3.3293-1.8498-1.4201,1.5757-3.1554,2.2195-3.3293Z" style="fill:#0889b4; stroke-width:0px;"/><path d="m480.408,828.0883q11.3752,5.2714,22.7503,10.5428c-4.5547,5.8711-16.9745-5.4355-22.7503-10.5428Z" style="fill:#998741; stroke-width:0px;"/><path d="m584.1716,472.9615c-.5381.1956-3.5507,1.3718-3.3293,0,.9711-2.3206.9757-9.7043,4.4391-11.0977,1.316,5.8723,3.9156,7.9414,3.3293,9.4331-.8896,2.2634-3.3172,1.2569-4.4391,1.6647Z" style="fill:#50a24a; stroke-width:0px;"/><path d="m677.3924,324.2522c3.3471,3.8686-3.9967,14.7213-7.7684,9.9879,3.6057-3.502,1.99-6.9123,7.7684-9.9879Z" style="fill:#50a24a; stroke-width:0px;"/><path d="m680.1668,365.3137c.3943.002,5.0847,5.72,4.994,6.1037-.22.9301-8.9756,4.1098-9.4331,3.8842-2.2236-1.0966,3.2286-9.9941,4.4391-9.9879Z" style="fill:#166d31; stroke-width:0px;"/><path d="m659.0811,752.6238c2.3783.1456,1.883.5005,0,2.2195-3.1548,2.8802-20.044,9.08-20.5308,6.1037,5.1985-.5997,17.4574-8.5114,20.5308-8.3233Z" style="fill:#ddcbb0; stroke-width:0px;"/><path d="m685.7156,729.3186c12.3169-1.7537-4.4892,6.8423-12.7624,8.3233-.5391-1.4187,11.2658-8.1102,12.7624-8.3233Z" style="fill:#4d9acd; stroke-width:0px;"/><path d="m443.7855,893.5648c6.5179-1.4225.695,10.809-3.3293,9.9879-3.2449-.662,2.5619-9.8204,3.3293-9.9879Z" style="fill:#f9f2df; stroke-width:0px;"/><path d="m584.1716,459.6443c-1.131-7.0373-2.3934-14.0914,0-21.0857.2745,7.01,2.7114,14.0037,0,21.0857Z" style="fill:#375f3c; stroke-width:0px;"/><path d="m699.0329,608.3536c8.577-2.7538,22.5634,8.2972-1.1098,2.2195-1.1153-.3025.526-2.0321,1.1098-2.2195Z" style="fill:#de773f; stroke-width:0px;"/><path d="m218.502,683.818c2.5898-.4776,1.4218,2.5241,1.6647,6.1037,1.1938,17.5997-4.3812,14.1138-1.6647-6.1037Z" style="fill:#c47d26; stroke-width:0px;"/><path d="m256.2342,840.2957c12.2855,7.6412,22.6423,13.8737,37.7322,12.2075,31.8269,27.733,43.4784,35.3437,2.2195,13.3173q-9.9879-.5549-19.9759-1.1098-10.8203-11.3752-21.6405-22.7503.8323-.8323,1.6647-1.6647Z" style="fill:#e9e1e0; stroke-width:0px;"/><path d="m305.0642,896.8941c20.9366.45-13.5591,18.6191,9.4331,29.4089-52.1449,1.4535-20.2071,3.5603-9.4331-29.4089Z" style="fill:#fdfcfc; stroke-width:0px;"/><path d="m370.5407,870.2596c13.475-2.1544,4.2527,13.5539-3.3293,26.6345-18.5939-7.4932,1.082-26.2752,3.3293-26.6345Z" style="fill:#e0e4e5; stroke-width:0px;"/><path d="m305.0642,852.5032q20.2533,13.5947,40.5066,27.1894c-9.9977,4.7033-9.0511-3.6208-16.0917-8.3233-6.4235-4.2903-22.6121-10.165-24.415-18.8661Z" style="fill:#fdfcfc; stroke-width:0px;"/><path d="m212.9532,859.1619c10.7602-.0666,18.7542,32.2801,19.421,40.5066,4.2463,52.3912-48.1968,33.9445-47.7202,8.8782.0553-2.91,16.882-49.3142,28.2992-49.3848Z" style="fill:#fdfcfc; stroke-width:0px;"/><path d="m223.496,947.9435c-1.7374-.0425-3.4021.4926-3.3293-1.1098,20.6068-1.031,49.0551-17.545,53.269-39.3969,5.7964-30.0582-16.7221-50.2798-3.8842-43.836,3.7768,1.8957,24.6223,51.0455-14.427,74.3547-6.8425,4.0844-23.8911,10.1775-31.6285,9.9879Z" style="fill:#e9e1e0; stroke-width:0px;"/><path d="m182.9893,919.0895c16.0287,21.8344,8.3709,20.1256,1.6647,7.2135-.5203-1.0018-3.3178-6.6592-1.6647-7.2135Z" style="fill:#e9e1e0; stroke-width:0px;"/><path d="m438.2367,906.882c.8252.8659,1.8687,1.309,1.6647,2.7744-.2419,1.7378-14.0148,14.5645-1.6647-2.7744Z" style="fill:#f5d6a5; stroke-width:0px;"/><path d="m504.2681,380.8505c3.3697,5.3127-2.3798,24.0614,46.6104,8.8782-.6814,8.7685-44.0346,8.2422-59.3728,0-1.1074-.5951-13.7081-10.7617-13.8721-11.6526-.1057-.5736,3.1262-10.2506,4.994-10.5428,1.2552-.1964,20.96,12.2444,21.6405,13.3173Z" style="fill:#ab968c; stroke-width:0px;"/><path d="m482.0726,302.0568c.3795.4049,2.6502-.8022,8.8782,6.6586,1.2799,1.5333,4.9059,7.8667,5.5489,9.9879.5936,1.9583,1.3527,3.9895,1.1098,6.1037-.5878,1.1634-1.5845-.8067-3.3293-1.6647q-14.9819-17.4789-29.9638-34.9578c-5.828-12.359-4.1949-22.6524-4.4391-23.8601,6.4388,3.5709,2.8774,1.5581,5.5489-2.2195,3.6339,12.4578,8.469,31.2267,16.6466,39.9518Z" style="fill:#783711; stroke-width:0px;"/><path d="m530.9026,325.362q-2.7744-3.3293-5.5489-6.6586c.5149-.0811,8.8446-4.0423,9.4331-4.4391,6.6579-4.4903,31.1837-42.3055,34.9578-32.7382,1.7394,4.4093-29.158,36.7375-38.842,43.836Z" style="fill:#3b1406; stroke-width:0px;"/><path d="m580.8423,199.9578c3.4948.2046,3.1308,2.195,3.3293,2.2195.1533,3.9405-7.1798,3.512-11.0977,5.5489l-.5549-2.2195q-8.0458,3.8842-16.0917,7.7684c-2.0979-1.4871-12.7512-5.4017-14.9819-5.5489-8.3569-.5513-24.135,8.2995-13.3173-1.1098,9.0103-7.8371,31.4278-2.7746,42.1713-3.3293.552-.0285,6.6597-3.5566,10.5428-3.3293Z" style="fill:#8e2b0d; stroke-width:0px;"/><path d="m533.677,214.3849c9.0445-1.6028,29.0153,5.2782,23.8601,12.7624-2.9713,4.3136-2.6668-5.0374-14.9819-3.8842-4.7415.444-13.647,6.8093-14.427,6.6586-4.0988-.7919-4.6296-13.733,5.5489-15.5368Z" style="fill:#642909; stroke-width:0px;"/><path d="m564.1957,235.4705c.0323-.2265.2562.9266,1.1098-4.4391.0265-.1667,3.1719.4581,3.3293-.5549.116-6.3213-.6694-12.0386,1.1098-18.3112,19.1381,68.5194-7.8258,39.2657-5.5489,23.3052Z" style="fill:#923905; stroke-width:0px;"/><path d="m445.4502,207.7262c4.9713,2.6218,8.7121,6.8327,12.2075,11.0977-.0846,1.8286-.0472,3.7169,0,5.5489q-1.1098.5549-2.2195,1.1098c-1.5378-3.5118-17.1304-10.0369-14.427-17.7563.47-.1155,2.1505-1.0067,2.2195-1.1098-.0843,1.7481,1.7007.8362,2.2195,1.1098Z" style="fill:#b45d1d; stroke-width:0px;"/><path d="m509.8169,298.7275q1.1098,4.994,2.2195,9.9879c-9.6207.6941-13.9251-2.8626-21.0857-8.3233,6.2061-2.0641,12.5056-1.4458,18.8661-1.6647Z" style="fill:#ad846f; stroke-width:0px;"/><path d="m512.0365,308.7154q-1.1098-4.994-2.2195-9.9879c6.451-.2219,12.4587-.2438,18.8661.5549.2525,1.0405-8.4254,8.8399-16.6466,9.4331Z" style="fill:#581f0f; stroke-width:0px;"/><path d="m455.4381,231.0314c.3161,7.4489-1.1502,8.4326-1.1098,8.8782-6.7895-3.0682-13.6251-20.8274,1.1098-8.8782Z" style="fill:#e9e1e0; stroke-width:0px;"/><path d="m516.4755,214.3849c-.0769-.2359-2.8917-.3558-2.2195-4.4391,1.5108-.4087,7.8539-4.9959,8.8782-2.7744q-3.3293,3.6068-6.6586,7.2135Z" style="fill:#f5d6a5; stroke-width:0px;"/><path d="m511.4816,258.7757c1.7082,2.1663,8.2264,10.3452,3.3293,9.9879-3.9145-.2856-2.8504-6.6945-3.3293-9.9879Z" style="fill:#9d5c46; stroke-width:0px;"/><path d="m520.3597,218.824c3.4548-3.0283-2.1057,13.6454-3.3293,13.3173q1.6647-6.6586,3.3293-13.3173Z" style="fill:#221a11; stroke-width:0px;"/><path d="m512.0365,234.3607q-.5549-.5549-1.1098-1.1098c.6029-1.4225.8985-3.6404,2.2195-4.4391-.3043,1.8006-.8672,3.9121-1.1098,5.5489Z" style="fill:#836445; stroke-width:0px;"/><path d="m696.8133,371.9724c21.1719-3.004,31.4639,33.5705,32.7382,49.3848,2.9219,36.262-3.6241,15.8197-17.2015,21.6405-2.7626,1.1844-15.468,16.9985-18.8661,21.0857q-51.3269-.8323-102.6538-1.6647c1.7399-11.7869-2.5256-55.805-1.1098-59.9276.2043-.5949,8.8192-8.1858,9.4331-8.3233,3.6587-.8192,53.4177,6.662,71.0253-14.427,15.5633,1.8458,22.509-7.1831,26.6345-7.7684Z" style="fill:#f1841d; stroke-width:0px;"/><path d="m720.6734,381.9603h1.1098c26.8798,14.5645,18.8847,38.6142,21.0857,50.4946.7307,3.9442,18.0791,41.5874,14.9819,42.7262-7.2393-12.6422-9.8615-10.4917-23.8601-9.4331,7.3691-47.415-8.4787-65.323-13.3173-83.7877Z" style="fill:#f89d27; stroke-width:0px;"/><path d="m717.899,454.0954c.5642-.4936,14.5315-.0443,14.9819.5549,1.0034,1.3349-1.4936,28.7945-17.7563,16.6466.8994-3.4257,1.3118-15.9218,2.7744-17.2015Z" style="fill:#3b1406; stroke-width:0px;"/><path d="m724.5576,476.2908c5.561.525-.5514,16.1161-1.6647,17.2015-7.3757,7.1909-19.5219-10.162,1.6647-17.2015Z" style="fill:#3b1406; stroke-width:0px;"/><path d="m689.5998,474.0713c-1.3771.1096-2.3012,2.1951-2.7744,2.2195-5.4366.2812-19.7427-2.9557-23.8601,2.7744-8.3991,11.6891,19.4751,4.0745,31.0736,8.3233-2.9073,7.1134-14.8997,14.4013.5549,5.5489,4.8119,12.1599-5.068,16.477-13.3173,23.3052-4.3602-38.8509-35.5917-16.6409-62.7021-24.9698,6.0463-21.6801,27.4439-13.6717,23.3052-5.5489-2.072,4.0666-18.9846.2829-3.3293-3.3293-27.9705-4.036-2.2045,18.2807,5.5489,4.4391,5.8162-10.3833-16.1642-12.7746-7.2135-17.2015,2.3377-1.1562,49.642-.6818,52.1592,0,2.5417.6884.3518,3.1001.5549,4.4391Z" style="fill:#f89d27; stroke-width:0px;"/><path d="m594.7144,469.6322c13.4982-5.2302,13.6133,5.0611,14.427,5.5489.493.2955,4.6248-10.2245,8.3233-4.994,7.0352,9.9494-19.9325,10.2052-8.3233,23.8601q-9.1556-.8323-18.3112-1.6647c1.5724-5.2085-.6564-20.9909,3.8842-22.7503Z" style="fill:#f89d27; stroke-width:0px;"/><path d="m691.8194,475.1811c-9.8972,8.1584-28.702.106-26.6345,7.2135.928,3.1903,22.6763-3.3826,28.854,4.994-11.5985-4.2488-39.4727,3.3659-31.0736-8.3233,4.1173-5.7301,18.4235-2.4933,23.8601-2.7744.4732-.0245,1.3974-2.1099,2.7744-2.2195.1237-.0099-.4231,1.5261,2.2195,1.1098Z" style="fill:#200601; stroke-width:0px;"/><path d="m694.0389,487.3886c-6.1777-8.3765-27.926-1.8036-28.854-4.994-2.0675-7.1075,16.7373.9449,26.6345-7.2135,3.4633-2.8549,8.058-12.2675,4.4391,8.3233-.0881.5015-1.9993,3.3452-2.2195,3.8842Z" style="fill:#f89d27; stroke-width:0px;"/><path d="m623.5685,469.6322c.3595-.1471,7.454-.2282,7.7684,0,4.5131,3.2761-8.9851,7.6731-10.5428,9.4331-2.5581,2.8902-3.828,15.8638-9.4331,11.6526-6.3047-4.7368,5.8023-8.1499,8.3233-11.6526,1.0701-1.4869-1.2015-7.3518,3.8842-9.4331Z" style="fill:#f8b742; stroke-width:0px;"/><path d="m721.7832,381.9603h-1.1098c-1.1504-4.3901-.1916-.7051,1.1098,0Z" style="fill:#836445; stroke-width:0px;"/><path d="m270.6613,738.1968c14.1935-.7993,16.9093,8.5987-.5549,11.6526-.9785,2.2457,25.8339,6.4665,3.3293,19.9759,8.1139,3.1649,11.5725,1.2416,16.0917,9.4331,20.4678,4.211,41.7421-.0114,62.1472,4.4391,19.1733,4.1819,72.0919,37.1212,107.6478,42.1713,23.4769,13.553,33.0677,27.8683,59.9276,37.7322,12.6051,4.629,30.3572.5782,22.1954,16.6466,8.5233-13.4178,18.3689-6.9628,42.7262-4.994-8.5341,10.4856-18.904,32.581-25.5247,41.0615-18.0371,23.1037-11.4272-.0035-29.4089-1.6647-7.8396-.7242-7.2464,4.2575-11.0977,4.4391-8.7052.4105-102.2271-40.4699-123.1846-46.6104-19.3614-5.6729-39.4047-7.9215-58.8179-13.3173-20.279-8.3142-38.6152-29.5851-57.7081-37.7322-29.5079-12.5913-61.6697-1.105-42.1713-49.9397-2.5438,3.3111-19.2892,29.3028-18.3112,11.6526.2341-4.2242,30.6357-43.7025,52.7141-44.9457Z" style="fill:#0889b4; stroke-width:0px;"/><path d="m340.5768,832.5274c12.5259,4.3828,26.7007,13.4676,39.9518,15.5368,23.4995,3.6694,30.1259-12.3847,30.5187-1.6647.0987,2.6938-4.5423,10.4896-7.2135,11.6526-6.6984,2.9165-55.9-16.5833-63.257-25.5247Z" style="fill:#070706; stroke-width:0px;"/><path d="m518.1402,869.1498c9.6976,1.9773-35.5235,26.5224-37.7322,29.9638q-13.5947-11.93-27.1894-23.8601.2774-.8323.5549-1.6647,13.8721,9.4331,27.7443,18.8661c4.5396-2.5514,34.4958-23.7388,36.6224-23.3052Z" style="fill:#04150b; stroke-width:0px;"/><path d="m517.0304,880.2475c17.7082,12.8407,48.524,36.5927,5.5489,11.0977-5.314,4.1274-13.6289,20.4189-21.0857,15.5368-5.2615-3.4447,19.5648-17.2844,15.5368-26.6345Z" style="fill:#070706; stroke-width:0px;"/><path d="m332.8084,824.759q30.2413,8.0458,60.4825,16.0917c-17.2162.471-44.6467-7.8764-60.4825-16.0917Z" style="fill:#071415; stroke-width:0px;"/><path d="m367.2113,799.2342c27.8861-6.0221-15.6726,21.4941-7.2135,4.994.6396-1.2475,6.2041-4.776,7.2135-4.994Z" style="fill:#070706; stroke-width:0px;"/><path d="m239.5877,778.1486c4.6013.0668.4748,7.5802,2.2195,8.8782.9232.6868,4.2329-3.1126,5.5489-3.3293,17.9303-2.9531-.7372,2.756-7.7684,11.0977-1.7698-2.7897-4.2526-16.7083,0-16.6466Z" style="fill:#04150b; stroke-width:0px;"/><path d="m425.4743,423.0218c-1.0571-4.26-1.365-9.338-3.3293-13.3173.0021-.3686-.021-.7427,0-1.1098.0762-1.3342.9566-8.4578,1.1098-8.8782,19.46-18.9098,23.7065,49.4536,21.6405,52.1592-.3239.4242-8.6099,3.4198-10.5428,1.6647-1.1765-1.0683-7.9318-26.705-8.8782-30.5187Z" style="fill:#f1841d; stroke-width:0px;"/><path d="m363.3271,353.1063c-13.6002,26.8129,40.4038,37.9906,58.8179,55.4886-.021.367.0021.7411,0,1.1098-.0377,6.5987,1.3491,8.1728,2.2195,13.3173,2.8458,16.8197,9.4413,32.4737,13.8721,48.8299-1.8254-26.4379,7.6556-23.3646,12.7624,1.6647q-1.3872-29.1315-2.7744-58.263c40.308-1.5245,60.2605,44.4629,44.3908,78.7937h-84.3426c3.6604-4.1368,8.0327-8.2332,9.4331-13.8721,6.4948-26.1534-6.4653-15.1107-39.3969-16.0917-28.7789-.8573-61.2771-9.0589-86.5621,8.8782.1662-13.9837-.1254-21.3362,4.994-34.4029,1.8262-4.6612,9.7364-15.5688,9.9879-17.2015,1.4542-9.4393-9.1742-8.8052-6.6586-21.0857,1.9091-9.3197,35.9459-37.5968,59.3728-24.9698-18.455-28.1754-6.6878-40.9852,3.8842-22.1954Z" style="fill:#0889b4; stroke-width:0px;"/><path d="m375.5346,373.0821c12.7154,9.556,31.1929,14.3686,42.7262,26.6345h4.994c-.1531.4203-1.0336,7.5439-1.1098,8.8782-18.4141-17.498-72.4181-28.6756-58.8179-55.4886,6.0148,10.6903-.3259,10.5567,12.2075,19.9759Z" style="fill:#071415; stroke-width:0px;"/><path d="m461.5419,426.3511c11.6133-2.6005,23.4785,16.0512,20.5308,22.7503-.348.7909-7.6495,2.6383-12.7624,11.6526-1.4413.3736-18.1332-16.4644-18.3112-18.3112-.2219-2.303,5.706-15.0086,10.5428-16.0917Z" style="fill:#070706; stroke-width:0px;"/><path d="m425.4743,423.0218h-1.1098c-.8704-5.1444-2.2573-6.7185-2.2195-13.3173,1.9644,3.9793,2.2722,9.0572,3.3293,13.3173Z" style="fill:#425e4d; stroke-width:0px;"/><path d="m534.2319,419.6925c-.0921.1776-.6549-.3695-2.2195,3.3293-14.3634,2.0452-8.1,53.1581-7.7684,71.0253-1.9881.496-23.734.4586-24.415-.5549,6.1058-14.9157,5.9792-46.7901,2.2195-62.1472-4.2113-17.2019-11.8412-24.9393-26.6345-31.6285-3.309-1.4962-7.5733-2.4101-7.7684-2.7744-.5776-1.0784,2.2354-12.2724,3.8842-12.7624,3.6719-1.0912,24.6447,26.8262,72.1351,15.5368,2.8462,8.2847-5.0848,11.5855-9.4331,19.9759Z" style="fill:#f9e6c2; stroke-width:0px;"/><path d="m532.0123,423.0218c-8.4208,19.9066-2.8441,48.2948-4.4391,70.4705-.5743,1.0937-2.3552.3119-3.3293.5549-.3316-17.8673-6.595-68.9802,7.7684-71.0253Z" style="fill:#f5b77e; stroke-width:0px;"/><path d="m593.0498,774.8193c7.2141.903,15.1246.1387,22.1954,2.2195-3.0144,2.2676-62.5323,32.5477-67.1411,34.4029-11.4266,4.5994-25.54,13.5191-27.1894-2.7744-2.2053-21.7849,19.2644-52.627,11.6526-19.421.9448.318,6.2438-11.6297,7.7684-12.2075,5.0193-1.9023,41.9064,2.8303,52.7141-2.2195Z" style="fill:#0889b4; stroke-width:0px;"/><path d="m532.5672,798.1244c8.2558-1.929.2312,31.1167-2.7744,11.6526-.3008-1.9479,1.9153-11.4518,2.7744-11.6526Z" style="fill:#070706; stroke-width:0px;"/><path d="m274.5455,501.8156q-1.1098.8323-2.2195,1.6647c-.0596,2.0304.0872,4.0758,0,6.1037-16.9964,6.5899-14.1126,23.8188-18.8661,17.7563q3.8842-6.3812,7.7684-12.7624c-7.2846-9.398,3.5261-28.5974-2.2195-31.6285,4.5122-17.7222-.6956-32.8734,6.6586-39.9518-3.5646,9.9491,4.5555,18.4575,5.5489,24.9698,1.6793,11.0094-3.1603,23.8463,3.3293,33.848Z" style="fill:#071415; stroke-width:0px;"/><path d="m265.1124,479.6202c-.1478,25.0889,13.8563,23.4594-3.3293,33.2931-3.501-11.3116-.0754-22.4094,3.3293-33.2931Z" style="fill:#4d9acd; stroke-width:0px;"/><path d="m512.0365,209.9458c-2.6195.4769-9.0394,3.8428-8.8782-3.8842.0548-2.6268,6.1794-6.0012,6.6586-8.8782.5842-3.5071-2.1513-.4631-2.2195-.5549-10.7357-14.453-6.198-17.7094-8.8782-34.4029,24.4304.113,48.837-9.147,53.8239,24.415-2.9717,1.6479-27.2732-7.7301-40.5066,23.3052Z" style="fill:#3b1406; stroke-width:0px;"/><path d="m517.5853,243.2389c10.8163-2.491,17.8858,10.2032,38.842-2.2195,6.7772,19.9566,1.6236,35.239-9.4331,52.1592-15.2268-10.2355-19.6512-23.9498-13.8721-41.6164-.8407-1.9754-12.7783-.8369-15.5368-8.3233Z" style="fill:#3b1406; stroke-width:0px;"/><path d="m477.6336,253.2269c-.5344,1.7234.9713,2.1435,1.1098,3.3293.9299,7.9634,2.7375,15.5064,4.4391,23.3052.9724,4.4566,1.6349,9.0469,3.3293,13.3173-1.7483,1.3405-4.9707,6.2111-4.4391,8.8782-8.1775-8.7251-13.0127-27.494-16.6466-39.9518-2.0998-7.1986-6.1078-18.5563-4.4391-19.9759,3.2451,6.488,9.3477,12.1164,16.6466,11.0977Z" style="fill:#997c69; stroke-width:0px;"/><path d="m565.3055,231.0314c-.8536,5.3657-1.0775,4.2126-1.1098,4.4391-.5914-2.5031-4.5611,3.6476-7.7684,5.5489-20.9562,12.4228-28.0256-.2715-38.842,2.2195-2.0628-5.5984,4.3292-8.6856,6.1037-14.427,6.6419,4.9155,29.1413,6.1727,12.7624-.5549,15.9849-6.7412,14.939,15.7025,25.5247-2.7744.084.6887,1.2485,6.5525,3.3293,5.5489Z" style="fill:#642909; stroke-width:0px;"/><path d="m512.0365,209.9458c.1092-.0199-1.0073.8731,2.2195,0-.6721,4.0833,2.1426,4.2032,2.2195,4.4391.0688.211.0256,4.2186,0,4.4391-18.5366-10.3777-21.3793,3.287-16.0917,19.9759q6.3812-6.1037,12.7624-12.2075c-.1294.6983.1189,1.5161,0,2.2195-1.321.7987-1.6166,3.0166-2.2195,4.4391-.1356.3198.1456.8221,0,1.1098-14.5202,7.4423-8.2112,20.9528-29.4089,23.3052-2.8236,2.134-.578,1.88-.5549,3.3293.0359,2.2483,3.3896,13.7261,4.4391,17.7563q-1.1098.5549-2.2195,1.1098c-1.7016-7.7987-3.5091-15.3418-4.4391-23.3052,25.8361-12.1768,13.2316-25.9311,18.8661-42.1713,1.8567-5.3516,9.646-11.2192-2.2195-4.4391.612-7.2234,8.7483-8.0348,12.2075-13.3173.0682.0918,2.8038-2.9522,2.2195.5549-.4792,2.877-6.6038,6.2514-6.6586,8.8782-.1612,7.727,6.2587,4.3611,8.8782,3.8842Z" style="fill:#200601; stroke-width:0px;"/><path d="m495.3899,267.6539c1.3716,4.7674.5026,8.6141,3.3293,13.3173q-5.8263,3.8842-11.6526,7.7684c-1.3179-.9814-1.2248-8.2987-1.6647-9.9879-1.0495-4.0303-4.4032-15.508-4.4391-17.7563,17.0472-3.1705,13.7691,4.3717,14.427,6.6586Z" style="fill:#ab968c; stroke-width:0px;"/><path d="m512.0365,234.3607c-.804,5.4261-2.8543,37.4791-7.2135,37.7322-.4543.0264-6.5058-3.295-7.2135-5.5489-3.7763-12.0264,10.0864-25.7997,13.3173-32.1834.1456-.2877-.1356-.7899,0-1.1098q.5549.5549,1.1098,1.1098Z" style="fill:#bdb7b1; stroke-width:0px;"/><path d="m516.4755,218.824c-.3266,2.8101-2.61,3.886-3.3293,7.7684q-6.3812,6.1037-12.7624,12.2075c-5.2876-16.6888-2.4449-30.3536,16.0917-19.9759Z" style="fill:#d53919; stroke-width:0px;"/><path d="m525.3537,318.7033q2.7744,3.3293,5.5489,6.6586c-4.9023,3.5934-12.2657,10.6809-18.8661,9.9879-2.1265-.2233-3.1576-2.242-4.4391-3.3293,5.0776,2.8394,4.5933-5.4933,7.7684-13.3173,2.3285.2316,7.938.3227,9.9879,0Z" style="fill:#642909; stroke-width:0px;"/><path d="m515.3658,318.7033c-3.1751,7.824-2.6908,16.1566-7.7684,13.3173-2.3632-2.0052-7.2027-10.4795-11.0977-13.3173-.6429-2.1213-4.2689-8.4547-5.5489-9.9879,8.8474,4.2486,14.0762,8.9595,24.415,9.9879Z" style="fill:#ab968c; stroke-width:0px;"/><path d="m457.6577,224.3728c.2327,9.0342-.9481,9.2043,3.3293,17.7563-1.6687,1.4196,2.3393,12.7773,4.4391,19.9759-2.6715,3.7777.8899,5.7904-5.5489,2.2195-.1134-.5606-2.94-5.6888-4.4391-10.5428-.0635-4.6387-.691-9.2558-1.1098-13.8721-.0404-.4455,1.4259-1.4293,1.1098-8.8782-.0118-.2772,1.2501-2.6941,0-5.5489q1.1098-.5549,2.2195-1.1098Z" style="fill:#923905; stroke-width:0px;"/><path d="m498.7192,280.9711c.9766,1.6249,1.2938,3.2264,2.7744,4.4391,13.7243-1.4373,39.2802,5.9362,8.3233,6.6586,1.7225-7.9878-9.6947-5.0714-14.9819-3.3293-2.7256.8981-.4514,2.1708-.5549,2.2195-3.3781,1.5893-7.4478,1.9737-7.7684,2.2195-1.6944-4.2703-2.3569-8.8607-3.3293-13.3173q1.1098-.5549,2.2195-1.1098c.4399,1.6892.3468,9.0065,1.6647,9.9879q5.8263-3.8842,11.6526-7.7684Z" style="fill:#581f0f; stroke-width:0px;"/><path d="m449.8893,196.6285c-.0523,1.5362,3.2175,3.1221,3.3293,3.3293,6.2327,11.5454-1.0589,3.1005,17.7563,5.5489v1.1098c-11.1545-.9744-12.9636,4.5632-13.3173,12.2075-3.4954-4.265-7.2362-8.4759-12.2075-11.0977.238-12.1322,4.201-10.5074,4.4391-11.0977Z" style="fill:#fdfcfc; stroke-width:0px;"/><path d="m573.0739,207.7262c-1.6139.2955-2.9318,3.0375-3.3293,4.4391-1.7791,6.2727-.9937,11.9899-1.1098,18.3112-.1574,1.013-3.3028.3882-3.3293.5549-2.0808,1.0036-3.2453-4.8601-3.3293-5.5489-.0889-.7285,4.1045-5.3648-5.5489-12.2075q8.0458-3.8842,16.0917-7.7684l.5549,2.2195Z" style="fill:#b45d1d; stroke-width:0px;"/><path d="m510.9267,234.3607c-3.2308,6.3837-17.0936,20.157-13.3173,32.1834q-1.1098.5549-2.2195,1.1098c-.6579-2.2869,2.6202-9.8292-14.427-6.6586-.0231-1.4493-2.2688-1.1954.5549-3.3293,21.1977-2.3524,14.8888-15.8629,29.4089-23.3052Z" style="fill:#b45d1d; stroke-width:0px;"/><path d="m507.5974,332.0206c1.2814,1.0874,2.3125,3.1061,4.4391,3.3293q-1.1098,2.7744-2.2195,5.5489c-10.3417-5.6417-13.5048-11.4333-21.0857-18.8661,2.5611-3.8724,2.1748-.5492,5.5489,1.1098,1.7448.8579,2.7415,2.8281,3.3293,1.6647.243-2.1142-.5162-4.1454-1.1098-6.1037,3.895,2.8378,8.7345,11.312,11.0977,13.3173Z" style="fill:#200601; stroke-width:0px;"/><path d="m498.7192,162.2256c2.6801,16.6935-1.8575,19.9499,8.8782,34.4029-3.4592,5.2825-11.5955,6.0939-12.2075,13.3173-.0877-.0878-1.5953-.8214-2.2195-1.1098-7.0932-13.2238-25.001-16.0414-37.7322-9.9879-2.126-2.8433,3.8912-13.3659,5.5489-20.5308.7308-3.1586-.7139-9.4913,0-12.7624.0618-.283,1.2325-.0237,1.6647-5.5489,12.0904,1.8592,23.8633,2.1631,36.0676,2.2195Z" style="fill:#b5a79f; stroke-width:0px;"/><path d="m460.987,165.5549c-.7139,3.271.7308,9.6037,0,12.7624-1.6577,7.1649-7.6749,17.6874-5.5489,20.5308-.1121.0533.3774,1.5192-2.2195,1.1098-.1118-.2072-3.3816-1.7931-3.3293-3.3293,3.3008-8.1851,6.5305-28.6182,11.0977-31.0736Z" style="fill:#723a26; stroke-width:0px;"/><path d="m509.8169,292.0688c-4.8627.1135-11.2156.7088-15.5368-1.1098.1035-.0487-2.1707-1.3214.5549-2.2195,5.2872-1.7421,16.7044-4.6585,14.9819,3.3293Z" style="fill:#d5c7bc; stroke-width:0px;"/><path d="m488.7313,322.0327c7.5808,7.4328,10.744,13.2244,21.0857,18.8661,2.5372,1.3841,3.1081,3.2489,3.3293,3.3293v19.421q-4.4391-3.3293-8.8782-6.6586c6.9575,13.6039,16.8992,7.571,3.3293,21.6405q-13.3173-7.491-26.6345-14.9819,1.1098-23.3052,2.2195-46.6104c1.1304-1.1074,2.7856,2.2846,5.5489,4.994Z" style="fill:#9d847c; stroke-width:0px;"/><path d="m550.8785,389.7287c-48.9902,15.1832-43.2407-3.5654-46.6104-8.8782,2.7388.4229,3.1681-2.0524,3.3293-2.2195,13.5699-14.0696,3.6282-8.0366-3.3293-21.6405q4.4391,3.3293,8.8782,6.6586v-19.421c15.4689,5.6238,26.2346-3.7266,28.2992-3.3293,8.6553,11.2908,21.8297,4.1239,20.5308,19.421-.9333,10.9911-21.8518,26.2791-16.0917,28.2992,3.0738,1.078,5.4142-4.2977,4.994,1.1098Z" style="fill:#3b1406; stroke-width:0px;"/><path d="m518.1402,369.7528c4.5631,4.029,12.0501,5.5927,16.6466,8.8782,20.3524,14.5475-3.4494,7.8539-16.6466-8.8782Z" style="fill:#723a26; stroke-width:0px;"/><path d="m493.1704,208.836c-3.453-1.5953-7.8801,1.2165-8.3233,1.1098-.708-.1705-4.046-3.1604-13.8721-4.4391-18.8152-2.4484-11.5237,5.9966-17.7563-5.5489,2.597.4094,2.1075-1.0565,2.2195-1.1098,12.7312-6.0535,30.639-3.2358,37.7322,9.9879Z" style="fill:#070706; stroke-width:0px;"/><path d="m497.6094,214.3849c-1.6945-.0736-2.0441-4.2636-2.2195-4.4391,11.8656-6.7801,4.0763-.9125,2.2195,4.4391Z" style="fill:#864d39; stroke-width:0px;"/><path d="m493.1704,208.836c.6242.2884,2.1318,1.022,2.2195,1.1098.1755.1755.5251,4.3655,2.2195,4.4391-5.6345,16.2402,6.97,29.9945-18.8661,42.1713-.1385-1.1858-1.6442-1.6059-1.1098-3.3293,19.2666-2.689,21.7223-44.1311-6.6586-46.6104v-1.1098c9.8262,1.2786,13.1641,4.2686,13.8721,4.4391.4432.1067,4.8703-2.7051,8.3233-1.1098Z" style="fill:#b19579; stroke-width:0px;"/><path d="m470.9749,206.6165c28.3809,2.4793,25.9252,43.9213,6.6586,46.6104-7.2989,1.0187-13.4015-4.6097-16.6466-11.0977-4.2774-8.552-3.0966-8.7222-3.3293-17.7563-.0472-1.832-.0846-3.7203,0-5.5489.3537-7.6443,2.1628-13.1819,13.3173-12.2075Z" style="fill:#200601; stroke-width:0px;"/><path d="m473.7494,214.3849c11.0182-2.2835,18.3392,13.7112,16.0917,22.7503-3.4869,14.0237-4.2231-13.6029-11.6526-17.2015-6.188-2.9972-11.9894.1435-7.7684,6.6586-1.7991.8405-5.5557-1.0706-6.1037-2.7744-2.9252-9.0939,2.4901-2.5168,2.7744-2.7744,1.7527-1.5882,3.1264-5.9266,6.6586-6.6586Z" style="fill:#723a26; stroke-width:0px;"/><path d="m469.8652,233.251c-2.9604,1.2219-.0451,2.1182,0,2.2195,3.2105,7.2064,1.2249,10.3645,4.4391,12.7624q-.8323.8323-1.6647,1.6647c-7.4861-6.6747-13.8586-17.8911-12.7624-28.2992,2.112-20.0531,2.6081,5.9767,6.1037,9.4331,1.3371,1.322,2.4965-4.4108,3.8842,2.2195Z" style="fill:#d5c7bc; stroke-width:0px;"/><path d="m469.8652,235.4705c-.0451-.1014-2.9604-.9977,0-2.2195.0227.1086,1.9146-.4633,0,2.2195Z" style="fill:#feeadf; stroke-width:0px;"/><path d="m475.414,404.1557v-4.4391c14.7933,6.6892,22.4232,14.4265,26.6345,31.6285,3.7597,15.3571,3.8863,47.2315-2.2195,62.1472.681,1.0135,22.4269,1.0509,24.415.5549.9741-.243,2.755.5388,3.3293-.5549,1.595-22.1757-3.9817-50.5639,4.4391-70.4705,1.5647-3.6988,2.1275-3.1517,2.2195-3.3293l3.3293,2.2195c-6.9863,11.6807-3.5993,54.5351-4.4391,70.4705q1.3872,1.3872,2.7744,2.7744c1.9508-2.0902,6.9449-.7836,11.6526-1.1098-.3527,1.2022.7254,3.0555,1.6647,3.3293,7.7225,2.2513,105.2608-2.3902,117.6357,0,1.3465.2601,6.6061,4.3551,3.8842,4.4391-1.2662.0242-2.1874-2.1136-2.7744-2.2195-18.8157-3.3957-331.8491,1.134-382.3161,2.2195q-2.2195-1.1098-4.4391-2.2195c2.16-1.5985,4.2463-3.6042,6.6586-4.994-.9706-13.525,1.171-27.0315,1.1098-40.5066,4.2489.5503.7786-13.2917,7.7684-15.5368-5.1194,13.0667-4.8278,20.4192-4.994,34.4029,25.2851-17.9371,57.7832-9.7355,86.5621-8.8782,32.9315.981,45.8917-10.0617,39.3969,16.0917-1.4004,5.6389-5.7726,9.7353-9.4331,13.8721h84.3426c15.8696-34.3308-4.0828-80.3183-44.3908-78.7937q1.3872,29.1315,2.7744,58.263c-5.1068-25.0293-14.5878-28.1026-12.7624-1.6647-4.4309-16.3562-11.0263-32.0103-13.8721-48.8299h1.1098c.9464,3.8137,7.7016,29.4504,8.8782,30.5187,1.9329,1.7551,10.2189-1.2405,10.5428-1.6647,2.066-2.7056-2.1805-71.069-21.6405-52.1592,5.2151-14.3132,24.5718,4.0336,26.0796,4.4391,3.3428.8988,15.0605-.6773,21.0857,0,3.6433.4095,15.0448,7.0795,11.0977,2.2195q-3.0519-1.1098-6.1037-2.2195Z" style="fill:#070706; stroke-width:0px;"/><path d="m388.8519,491.8276c3.8142-1.6882,5.2654-7.3844,5.5489-7.7684.7799-1.0565,8.485-9.6391,9.4331-8.8782,3.4081,8.3417-4.9278,20.1982-13.3173,18.8661-.8987-.1427-1.5318-2.1797-1.6647-2.2195Z" style="fill:#0889b4; stroke-width:0px;"/><path d="m393.291,480.7299c1.8003,2.7994-.9198,2.6693,1.1098,3.3293-.2835.384-1.7346,6.0802-5.5489,7.7684-.303-.0908-.8752-4.1518-4.4391,0-13.7608-8.142.8647-23.5579,8.8782-11.0977Z" style="fill:#070706; stroke-width:0px;"/><path d="m386.0774,480.7299c2.4894.252,1.3633,5.9113-1.1098,5.5489-3.3368-.489-.086-5.6699,1.1098-5.5489Z" style="fill:#b7e0ed; stroke-width:0px;"/><path d="m393.291,480.7299c-8.0134-12.4602-22.639,2.9557-8.8782,11.0977.3137.1856,3.7961-.0487,2.7744,2.2195h-89.8915c-12.1034-21.9416,35.1774-22.6851,49.9397-23.3052,20.6166-.866,58.5333-1.9721,46.0555,9.9879Z" style="fill:#0889b4; stroke-width:0px;"/><path d="m337.2475,474.0713c6.8022-.753,13.1732.0994,18.3112,4.994-32.2458-8.5585-21.7093,15.8678-30.5187,11.6526-6.3305-3.0291,1.8415-15.4991,12.2075-16.6466Z" style="fill:#00121c; stroke-width:0px;"/><path d="m329.4791,479.6202c-.7055,9.3629-4.1565,13.2869-3.8842,6.1037.0137-.3615,2.0567-5.0444,3.8842-6.1037Z" style="fill:#4a95aa; stroke-width:0px;"/><path d="m651.159,255.2923c.2225-.4077.4577-.8067.6919-1.2077.1941-.3323.335-.6715.4814-1.0326.0711-.1753.2998-.7151.0961-.2488.3901-.8934.8065-1.7731,1.2605-2.636.8978-1.7064,1.7554-3.4236,2.7356-5.0863,1.9479-3.3042,4.1451-6.4572,5.9698-9.8334,1.1583-2.1431,2.1267-4.3152,2.8138-6.6559.4416-1.5043-.4129-3.1088-1.8165-3.7011-1.3344-.5631-3.2424-.1293-3.9177,1.2836-1.6609,3.475-3.5094,6.8659-5.3416,10.2536-1.9317,3.5716-4.0141,7.1651-5.3963,10.997-.3655,1.0134-.6504,2.066-.9048,3.1121-.3074,1.264-.4211,2.458-.3675,3.7545.0348.8421.5881,1.7145,1.4558,1.9122.8419.1918,1.8073-.1193,2.2394-.9113h0Z" style="fill:#fff; stroke-width:0px;"/><path d="m678.5361,263.2147c.2723-.3635.548-.7243.8227-1.0859.2579-.3395-.3707.4755-.1116.144.0637-.0814.127-.1631.1905-.2447.3009-.3868.6081-.7689.8865-1.1722.5536-.8019,1.0986-1.6092,1.6621-2.4043.5979-.8436,1.2059-1.6799,1.8233-2.5094.2905-.3903.583-.779.8776-1.1662.1595-.2096.3202-.4183.4802-.6274.2455-.321-.2476.3179-.2324.3008.1237-.1384.2303-.296.3446-.4421.3003-.3838.6026-.7661.9069-1.1468.1409-.1763.2824-.3521.4221-.5293.2488-.3155.4904-.636.7362-.9536-.0939.1213-.496.6375-.1817.2367.6539-.8337,1.3109-1.6646,1.9803-2.486,1.3085-1.6055,2.6516-3.183,4.031-4.728,1.7226-1.9294,3.5915-3.7266,5.1696-5.7754l-.6399.8283c.4899-.6334,1.044-1.2269,1.3568-1.9682.4233-1.0031.3377-1.8902.1954-2.9366-.0983-.7229-.7268-1.4186-1.2662-1.8354-.6696-.5173-1.2973-.658-2.1409-.7586-1.8352-.219-3.5309,1.1537-4.7267,2.4423-.7461.8039-1.4559,1.6459-2.1656,2.482-1.6039,1.8895-3.141,3.8315-4.6523,5.7955-2.7317,3.55-5.2301,7.2355-7.52,11.0853-.6304,1.0598-1.2459,2.1284-1.8448,3.2063-.5838,1.0507-1.0466,2.1552-1.515,3.2614-.3241.7653-.5294,1.4418-.2984,2.2806.1891.6865.7199,1.4305,1.3602,1.7688,1.5535.8208,3.0546.266,4.0495-1.0618h0Z" style="fill:#fff; stroke-width:0px;"/><path d="m700.0687,282.625c1.4627-1.8163,3.1332-3.4423,4.7641-5.1035,1.6525-1.6832,3.411-3.2589,5.2105-4.7826,3.6238-3.0683,7.4373-5.9059,10.9567-9.0971.9322-.8453,1.8471-1.71,2.7319-2.6049,1.069-1.0811,2.1913-2.2288,2.8993-3.5809.8414-1.6067.5281-3.5315-.93-4.658-.609-.4705-1.3969-.8107-2.1879-.7753-1.0146.0454-1.766.4257-2.5533,1.0576-.8606.6907-1.5552,1.5454-2.3042,2.3546-.7878.8511-1.603,1.6765-2.4351,2.4843-1.6662,1.6174-3.3982,3.1685-5.1128,4.7342-3.5118,3.207-7.0847,6.3707-10.2485,9.9312-1.8876,2.1243-3.472,4.4376-4.7885,6.9559-.5923,1.1331-.3728,2.489.6556,3.2835.9138.706,2.5454.7903,3.3421-.199h0Z" style="fill:#fff; stroke-width:0px;"/><path d="m716.5501,297.9075c3.9608-2.9536,9.1385-4.7928,11.5117-9.4295.6061-1.1841.3483-2.816-.9132-3.4825-1.2728-.6725-2.7012-.2774-3.4825.9132-.0879.1339-.1791.2646-.2694.3968-.2604.3812.2733-.3258.0727-.0843-.1652.1988-.3292.3973-.5046.5875-.3663.3969-.7306.7967-1.1236,1.1677-.1874.1769-.3797.3487-.5759.5158-.1182.1007-.2378.1996-.3585.2972-.0757.0612-.4395.3619-.1006.0823.3386-.2794-.029.018-.1083.0763-.1057.0777-.2122.1545-.3191.2305-.2367.1684-.4761.333-.7173.4949-1.8975,1.2737-3.8966,2.391-5.7107,3.7874-.5563.4283-.9888.8323-1.1833,1.5389-.1697.6164-.0931,1.4371.2596,1.9842.6867,1.0651,2.3682,1.785,3.523.9238h0Z" style="fill:#fff; stroke-width:0px;"/><path d="m472.988,621.5652c-.3372,1.9162-.5472,3.8887-.5511,5.8367-.0042,2.068.3715,4.1978.6634,6.2381.2676,1.8707.5827,3.7337.9756,5.5821.4121,1.9385.691,4.0495,1.4971,5.8622,1.2795-1.6643,2.5589-3.3286,3.8384-4.9929,1.3796,1.3729,1.8688,1.7364,1.4676,1.0905-.1445-.2696-.3313-.4994-.5604-.6893-1.1501-1.0023-3.0215-1.2366-4.1463,0-.976,1.0731-1.2605,2.3663-.9419,3.7799.3718,1.6498,2.1379,2.6484,3.7292,2.4346,1.604-.2155,3.0156-1.6401,2.9471-3.3381-.0441-1.0936-.3993-2.1856-.6564-3.2461-.2021-.8336-.4021-1.6678-.5965-2.5033-.4179-1.796-.8567-3.588-1.2374-5.3923-.1957-.9274-.3775-1.8578-.5395-2.7917-.0711-.4096-.1384-.8198-.2012-1.2307-.0314-.2053-.0112-.64-.1184-.8134l.0561.4159c-.0421-.3408-.0873-.6812-.1354-1.0212-.15-.8313-.2711-1.6785-.4414-2.5049.1629.7907.011.0678-.0106-.1202-.0251-.2191-.0481-.4384-.0683-.658-.0389-.425-.0669-.8506-.0861-1.2769-.0559-1.2433-.9035-2.2735-2.1557-2.4418-1.1237-.151-2.513.5602-2.7278,1.7808h0Z" style="fill:#fff; stroke-width:0px;"/><path d="m466.6162,639.8331c.0609.0403.1224.077.1814.12l-.7614-.7614c1.0667,1.975,3.9449,1.3621,5.6986.9504,1.3543-.3179,2.6727-.8299,4.0543-1.0223l-.9511.1278c2.4808-.3167,4.9389-.652,7.3779-1.2152,1.0609-.245,2.1148-.5239,3.15-.8623.5412-.1769,1.0773-.3698,1.6052-.5832.5038-.2037,1.0539-.3619,1.5164-.6393.9898-.5935,1.4497-1.4168,1.8436-2.4628.3119-.8283.0919-2.1662-.3789-2.8964-.5529-.8576-1.2829-1.3833-2.2464-1.7274-1.1176-.3991-2.2266-.0848-3.2572.3846-.2889.1316-.5774.2625-.8697.3866l.9292-.3921c-3.3847,1.4005-7.0021,1.9952-10.5201,2.9527-1.564.4257-3.1107,1.1255-4.49,1.9725-.7545.4633-1.5358.887-2.2016,1.4763-.1912.1693-.3841.3371-.5751.5065-.1944.1559-.1163.0935.2342-.1873l-.4912.3795c-.5235.4806-.6456,1.112-.7177,1.7801l.6216-1.5007c-.046.0585-.0896.0988-.1473.1452-1.0394.8378-.5505,2.4426.3953,3.068h0Z" style="fill:#fff; stroke-width:0px;"/><path d="m200.0292,520.2239c-15.6096,12.991-30.8774,26.6733-43.5212,42.6423-12.5178,15.8098-22.5541,34.0545-25.8252,54.1597-2.3038,14.1602-3.5268,34.7969,11.6625,42.5424,10.5459,5.3777,23.4895,2.347,32.4038-4.7919,4.0112-3.2124,7.3716-7.8781,8.3618-12.9917,1.3622-7.0343-1.0921-15.0096-7.2121-19.1205-7.3748-4.9537-17.4799-1.1689-24.0197,3.4179-8.1277,5.7006-14.278,14.372-17.3664,23.7747-3.0184,9.1899-3.1866,19.158-3.3944,28.7414-.1992,9.1852.257,18.7468,4.3885,27.1318,2.1575,4.3786,5.4731,8.0461,9.473,10.8152,3.1656,2.1916,6.7441,3.2752,10.5298,3.7484,6.8291.8536,15.2351-.6552,19.9384-6.117,2.7166-3.1547,3.984-7.2182,3.557-11.368-.4669-4.537-2.377-9.5827-7.31-10.7589-4.1653-.9931-8.2518,1.2527-11.3403,3.843-3.1403,2.6338-5.3681,6.1701-6.5584,10.0734-2.8088,9.2104-.1365,18.9128,4.3278,27.1145,4.5364,8.3341,10.9867,15.7049,17.9512,22.0966,3.063,2.8111,6.5252,4.9928,9.8619,7.4346,1.5748,1.1524,4.0273.2656,4.9403-1.2954,1.0704-1.83.2831-3.7852-1.2954-4.9403.8306.6079-.2509-.2487-.4411-.4097-.3369-.285-.6716-.5726-1.0044-.8624-.6992-.6089-1.3896-1.228-2.0715-1.8561-1.4754-1.3589-2.928-2.7403-4.4019-4.1008-3.1349-2.8935-6.1078-5.9673-8.8572-9.2301-.6895-.8183-1.3571-1.6534-2.0222-2.4916-.4195-.5286.5766.7697-.0783-.1049-.135-.1803-.2713-.3596-.4059-.5402-.4029-.5411-.7989-1.0875-1.1872-1.6392-1.2486-1.7739-2.4195-3.6034-3.4845-5.4936-.5088-.9031-.9935-1.8198-1.4492-2.7508-.2368-.4838-.466-.9715-.6865-1.463-.0877-.1953-.1717-.3922-.2589-.5877.4069.912.0091.0148-.075-.1964-.7696-1.9324-1.3874-3.9176-1.834-5.9492-.1089-.4952-.2101-.9911-.2958-1.491-.034-.1986-.0639-.3978-.0961-.5967-.1245-.7679-.0096.1023.0254.1921-.3472-.8918-.1955-2.3347-.1914-3.2823.0038-.8947.0715-1.781.1557-2.6711.0917-.9701-.1655.6364-.0029.0398.0645-.2364.0826-.4964.1288-.7374.0946-.4928.2052-.9827.3316-1.4683.1278-.4908.2718-.9774.4316-1.4587.0807-.243.1758-.4819.2548-.7252.1383-.4261-.0204-.6323-.0919.1813.0562-.64.7943-1.5561,1.1375-2.0861.0791-.1222.7311-.897.7075-1.012.0101.0496-.6217.7542-.1576.2124.1362-.159.2678-.3219.4055-.4797.5758-.6598,1.1961-1.2812,1.8587-1.854.1242-.1074.2527-.2098.377-.3169.6299-.5427-.5854.3715-.1225.0935.3041-.1826.583-.4143.8846-.6037.3257-.2046.661-.3838.9974-.5693.0132-.0073.3472-.2053.4007-.1952-.6.2435-.7105.2904-.3315.1408.1004-.0348.201-.0686.302-.1016.2928-.0959.6068-.1418.8961-.2419.6847-.2369-.8394.0349-.3595.0351.1586,0,.3197-.027.479-.0299.118-.0022.2575.0174.3766.0059.6958-.0673-.9657-.2831-.3154-.0478.1032.0373.2506.0667.3535.0887.7208.1542-.1778.2209-.2644-.1321.0132.0538.34.1841.4026.2296.3844.2795-.7228-.757-.2676-.2158.0745.0885.197.1959.287.2766.6182.5539-.0076-.136-.0886-.1468.159.0212.3858.6552.4709.8.434.7388-.2538-.8724.0019-.0021.0802.273.1798.5395.2548.8147.1257.4611.199.9292.2988,1.3956.1415.6613-.0738-.9956-.0091-.068.0126.1801.0334.3595.0452.5397.0281.4316.0375.8648.0247,1.2972-.0061.2072-.0271.4138-.034.6206-.0309.925.1237-.4842.0304-.1212-.1804.7016-.3364,1.3874-.5537,2.0808-.208.6638.1291-.3973.1582-.3697.0256.0242-.2628.5326-.2871.5776-.1685.3131-.3653.606-.5524.9075-.56.9028.5888-.5879-.1356.1689-.2437.2546-.4772.5145-.7339.7571-.2319.2192-.4855.413-.7208.6273-.3871.3526.8983-.5894.2365-.1918-.1831.11-.3562.2465-.5364.362-.5886.3774-1.2057.6878-1.8322.9955-.8356.4103.8874-.3113-.1522.0571-.4304.1525-.8592.3033-1.2975.4325-.6676.1967-1.3457.3582-2.0294.4882-.192.0365-.3852.0658-.5772.1018-.4832.0907-.4641.3169.2902-.0294-.3073.1411-.8408.0951-1.1734.1215-1.5692.1248-3.1285.0775-4.6944-.0604-1.1772-.1037.8982.1733-.2541-.0326-.3336-.0596-.6675-.1157-.9995-.1845-.7503-.1554-1.4931-.348-2.2221-.5843-.3007-.0975-.5954-.2103-.8934-.3153-.8506-.2997.8928.4452-.0295-.0116-.7246-.3589-1.4139-.7414-2.0914-1.1862-.4174-.274-.8211-.5656-1.2262-.8571.8558.6157-.4778-.4054-.6504-.5572-.782-.6875-1.5192-1.4255-2.2037-2.2102-.1679-.1925-.3282-.3911-.4936-.5857-.2273-.2674-.6751-.5206.0099.0211-.3445-.2724-.6295-.8808-.8629-1.2392-.5465-.8391-1.0413-1.7118-1.4863-2.6088-.2151-.4337-.4972-.8999-.6307-1.3635.2598.9018.0226.0312-.1286-.3749-.3884-1.0432-.7202-2.1073-1.0038-3.1836-.2351-.8919-.4367-1.7926-.6101-2.6985-.0972-.5079-.1853-1.0176-.2654-1.5285-.0322-.2053-.0611-.411-.0926-.6164-.1499-.979.0872.8186-.0086-.0901-.2208-2.0946-.3804-4.186-.4369-6.2922-.11-4.1028.067-8.2054.2485-12.3035.1019-2.3016.2095-4.6023.3967-6.8989.0913-1.1206.1996-2.2398.3295-3.3566.0434-.3736.1634-1.8012.0827-.7063.0494-.6703.1997-1.3558.3127-2.0186.3619-2.1223.8276-4.2278,1.4344-6.294.2907-.9896.613-1.9705.9649-2.94.1853-.5106.3861-1.0146.5846-1.5201.0943-.2402.2033-.7709-.0735.1703.09-.3059.2677-.6068.4022-.8976.9416-2.0363,2.0501-3.9947,3.3058-5.8537.3275-.4849.6645-.9634,1.0107-1.4351.1407-.1917.2847-.3808.4265-.5717-.5706.7681-.074.0984.0771-.0901.8216-1.0254,1.685-2.017,2.5828-2.9763,1.2277-1.3117,2.6414-2.3861,3.9003-3.645-.9735.9734.0266-.0118.3456-.2401.3634-.2602.7319-.5134,1.1051-.7594.7642-.5037,1.5481-.9778,2.3503-1.4185.7722-.4243,1.5841-.7634,2.3619-1.1724.5571-.2929-1.0619.4125-.1749.0725.1715-.0658.3415-.1355.5133-.2005.5108-.1934,1.0278-.371,1.5505-.5295.766-.2324,1.5447-.4252,2.3329-.5656,1.2681-.2258-.9109.0613.3567-.044.4628-.0384.9273-.0559,1.3916-.049.3598.0053.7613.0995,1.1162.0642-.992.0985-.8159-.1449-.3341-.0382.1984.0439.3988.0769.5967.1245.3955.095.7755.2261,1.1615.3528.4161.1366.2078.3126-.3893-.1686.1768.1425.4524.2202.6556.3339.3519.1969.6875.5099,1.0465.6806-.798-.3795-.5759-.4799-.3029-.21.1878.1857.3887.3564.5731.5462.1259.1295.2414.2698.3676.3985.5773.5884-.2207-.221-.1668-.2494.077-.0404.8968,1.3681.9697,1.4991.2166.3893.3896.7985.5953,1.1925.3091.5921-.4301-1.1406-.0924-.2122.2126.5844.416,1.1675.5731,1.7699.1363.5226.1982,1.059.324,1.5817-.3794-1.5765-.0828-.6579-.0457-.1926.0216.2713.0356.5433.0417.8154.0121.5363-.0062,1.0733-.0545,1.6075-.0096.1058-.0241.2116-.0323.3175-.0546.7014.1958-1.145.085-.627-.0608.284-.0961.574-.157.8586-.105.4908-.2354.9761-.3887,1.454-.0727.2268-.1506.4519-.2336.6751-.4348,1.1696.4429-.9139.0221-.0271-.4521.9528-.9528,1.8694-1.5487,2.7411-.1391.2036-.2849.4019-.4283.6024-.5907.8258.742-.8899.0824-.1118-.3616.4266-.7231.8507-1.1089,1.2561-.7911.8312-1.6519,1.5695-2.5304,2.3047-.3586.3001,1.0182-.7421.1334-.1097-.2138.1528-.4254.3085-.6415.4582-.5079.3518-1.0278.6863-1.5577,1.004-.9955.5968-2.0269,1.1336-3.0857,1.6091-.1364.0613-.2753.1179-.411.1807-.4867.2256,1.1597-.4627.4739-.2016-.2803.1067-.5573.2219-.8386.3266-.5629.2096-1.132.4003-1.7058.5775-1.145.3536-2.3078.6449-3.4873.858-.2346.0424-.4702.0785-.7053.1181-1.0568.1782,1.1474-.1203.1021-.0137-.5896.0601-1.1783.1153-1.7705.1427-1.1695.0542-2.3432.0284-3.5084-.0879-.1438-.0143-.2884-.0383-.4325-.0475-.534-.0341,1.2627.1977.5477.0744-.2565-.0442-.5141-.0806-.7702-.1279-.5945-.1098-1.1843-.2446-1.7668-.4063-.4972-.138-.9891-.2952-1.4738-.4724-.3803-.139-1.2943-.658.0668.0523-.2786-.1454-.5781-.2573-.8605-.3963-1.0288-.5065-1.9089-1.1846-2.8791-1.7768,1.2328.7525.3534.2707.0363-.0023-.2262-.1948-.4475-.3955-.6635-.6016-.4406-.4205-.8592-.8639-1.2545-1.3271-.1298-.1521-.7748-.962-.2578-.3.5104.6537-.1111-.1669-.2324-.3421-.3928-.5675-.7546-1.1561-1.0869-1.7609-.1457-.2652-.63-1.678-.8665-1.7619.2246.0797.3968.9995.1327.3092-.0649-.1696-.1333-.3377-.1971-.5077-.1304-.3474-.2528-.6979-.3679-1.0508-.4975-1.5249-.8549-3.0939-1.1027-4.678-.0238-.1522-.0306-.3582-.0759-.5105.3234,1.0849.0551.4074.0153.0529-.0454-.4047-.084-.8101-.1168-1.216-.0974-1.2044-.1464-2.4136-.1808-3.6213-.0671-2.3541-.0755-4.7107.017-7.0643.0952-2.422.2884-4.8399.5777-7.2463-.0051.0425.1401-1.1276.0674-.5594s.0849-.6007.0788-.5588c.0772-.5335.1592-1.0664.2457-1.5985.2009-1.2354.4268-2.4667.6775-3.693.9214-4.5063,2.1773-8.9423,3.725-13.2731,1.5874-4.442,3.2003-8.0582,5.4556-12.4288,2.1199-4.1082,4.4729-8.0945,7.0064-11.9607,10.3579-15.8073,23.6908-29.5618,37.6007-42.3796,3.3146-3.0544,6.6752-6.0584,10.061-9.0335.877-.7706.7876-2.2679,0-3.0555-.8882-.8882-2.1558-.7488-3.0555,0h0Z" style="fill:#fff; stroke-width:0px;"/><path d="m217.2124,400.5588c-4.4073-1.9818-8.5847-4.4548-12.6627-7.0365-4.1302-2.6148-8.2791-5.2158-12.4797-7.7199-2.3288-1.3883-4.6818-2.7478-7.0617-4.0465l1.5231,5.8085c.9465-1.6816,1.8915-3.3477,2.9913-4.9394,1.1164-1.6157,2.3103-3.1758,3.4926-4.7433,2.1853-2.8975,4.2337-5.8219,5.8372-9.0857.65-1.3231,1.2621-2.6955,2.1587-3.8753l-.6833.8844c.2971-.3776.6222-.7216,1.0014-1.0179l-.8853.684c.2794-.2065.5737-.3768.8936-.5125l-1.0457.4413c.3435-.1334.6939-.2165,1.0585-.2669l-1.1643.1564c.4745-.0523.9433-.0392,1.4172.0153l-1.162-.1561c1.2562.1717,2.4614.6039,3.6264,1.0911l-1.0386-.4383c3.1581,1.3481,6.0181,3.3018,8.727,5.3912l-.8672-.67c5.7156,4.4327,10.6956,9.7844,16.5956,13.9757,1.0369.7366,2.5168.6731,3.6252.2053,1.186-.5005,1.9703-1.4088,2.3584-2.6396.9051-2.8708,1.5881-5.796,2.0468-8.7718.4953-3.2131.8267-6.4478,1.2546-9.6698l-.141,1.0496c.3312-2.4602.8244-4.8619,1.3267-7.2896.3352-1.6199.488-3.2837.7072-4.9213l-.1398,1.0405c.3116-2.3192.5315-4.8247,1.4281-7.0088l-.3955.9372c.1053-.2448.2225-.4818.3822-.6961l-.6139.7946c.1022-.1262.2197-.2295.348-.3292l-.7949.6142c.205-.1465.4194-.2635.6492-.3665l-.9389.3962c.5975-.2487,1.2268-.3801,1.8658-.4694l-1.0466.1406c2.5399-.324,5.1263-.0425,7.6647.1597,2.4087.1919,4.8186.1228,7.232.1245,1.241.0008,2.4856.0245,3.7178.185l-1.064-.143c.8029.1114,1.5941.2848,2.3443.5974l-.9581-.4043c.3986.1739.773.3841,1.1216.6445l-.8126-.6278c.3148.2459.5922.5233.8377.8385l-.6285-.8135c.2566.3454.4619.7155.6299,1.1113l-.4056-.9612c.2367.59.3796,1.2016.4685,1.8302l-.144-1.0715c.2016,1.5902.0633,3.1962-.1444,4.7785l.1446-1.0759c-.6324,4.5988-2.1785,8.995-3.971,13.2571l.4129-.9784c-3.0374,7.1836-6.8325,14.116-8.9484,21.6567-.2792.9949-.1483,2.3337.4208,3.2163.6173.9576,1.4256,1.523,2.4945,1.9182.4577.1692.9107.3483,1.3607.5369l-.9983-.4213c5.5711,2.3793,10.3457,6.195,15.3797,9.4913,5.2421,3.4326,10.9508,5.8624,16.633,8.4505,3.2171,1.4652,6.3943,3.0258,9.3812,4.9244l-.8793-6.8236c-2.1494,1.662-4.018,3.6711-5.8532,5.6645-2.0815,2.261-4.1149,4.5688-6.2937,6.7381-1.2107,1.2054-2.4669,2.3659-3.8043,3.4302l.9099-.703c-.4277.3287-.8542.6589-1.2792.9911l.9105-.7035c-1.3554,1.0466-2.7971,1.9837-4.3752,2.6592l1.076-.4541c-.9522.3964-1.937.6864-2.9602.8251l1.1983-.161c-.7875.0959-1.5739.0981-2.3613-.0006l1.199.1611c-1.0637-.1496-2.0947-.4719-3.0856-.8811l1.0782.455c-1.6872-.7165-3.2247-1.7127-4.6743-2.8272l.9147.7067c-2.315-1.7971-4.3968-3.8648-6.598-5.7945-1.34-1.1747-2.7332-2.3024-4.1944-3.323-1.4453-1.0095-2.9747-1.7705-4.607-2.4331-1.7986-.7301-3.7328-1.0763-5.67-1.1573-1.6196-.0677-3.0901.9266-3.9226,2.25-2.4824,3.9461-5.2148,7.7249-8.0604,11.4157l.7127-.9224c-2.5148,3.255-5.1131,6.4438-7.708,9.6349-1.4469,1.7793-2.925,3.5406-4.3058,5.3721-.9261,1.2283-1.6884,2.5704-2.6241,3.7912l.7165-.9274c-.4052.5152-.8422.9942-1.3619,1.396l.9278-.7168c-.2715.1976-.5506.3641-.8561.5036l1.0954-.4622c-.3199.132-.6391.2214-.9807.2766l1.2193-.1638c-.3533.0432-.7018.0508-1.0562.0158l1.2196.1639c-.3898-.0526-.7573-.1724-1.1194-.3233.3654.1542.7308.3084,1.0962.4626-1.0272-.4506-1.9512-1.1056-2.8384-1.7844l.9295.7181c-1.7213-1.3319-3.3045-2.8259-4.9408-4.2579-1.8338-1.6049-3.883-2.8918-5.8089-4.3744l.9322.7202c-1.0097-.7856-1.9923-1.6238-2.7825-2.6365l.7209.933c-.3231-.4271-.6016-.8766-.8162-1.368l.4649,1.1017c-.1641-.3983-.278-.8057-.3397-1.2322l.1648,1.2264c-.0538-.4437-.0484-.883.0052-1.3264l-.1648,1.2268c.0969-.686.3022-1.3396.5647-1.9793l-.4654,1.1029c1.0167-2.3872,2.6022-4.4705,4.1783-6.5115l-.7055.9131c2.2745-2.9318,4.6957-5.7442,7.116-8.5555,1.2055-1.4002,2.4109-2.8007,3.5967-4.2177,1.3106-1.5661,2.6915-3.2688,3.7082-5.0532l-.6155.7967.1392-.1758c.6741-.8511,1.153-1.6516,1.153-2.7835,0-.9655-.4288-2.1187-1.153-2.7835-.7502-.6887-1.7351-1.1999-2.7835-1.153-.9723.0436-2.1504.3536-2.7835,1.153-.5493.6936-1.2352,1.3183-1.8525,1.9545-.6886.7097-1.3593,1.4252-2.0157,2.1649-1.2248,1.3802-2.4678,2.7439-3.7103,4.1082-2.543,2.7922-5.0885,5.5865-7.4695,8.5197-2.2229,2.7384-4.6241,5.6251-5.6025,9.0909-.8104,2.8704-.3644,6.0208,1.425,8.4344.9886,1.3335,2.0755,2.4412,3.3788,3.4626,1.4896,1.1675,3.0778,2.1852,4.5806,3.3293l-.9313-.7195c2.7462,2.1244,5.1461,4.6385,7.9908,6.6511,1.666,1.1786,3.489,1.989,5.5343,2.1766,2.5624.235,5.1633-.9965,6.8939-2.8359,1.5824-1.6819,2.6384-3.7546,4.0392-5.5725l-.7157.9263c5.3502-6.7809,10.9615-13.3536,15.9595-20.407,1.3708-1.9346,2.6917-3.904,3.9499-5.9137l-3.9226,2.25c.4125.0163.8221.0505,1.2315.1032l-1.2073-.1622c1.139.1608,2.2387.4726,3.3016.9105l-1.084-.4574c1.6734.709,3.1969,1.6986,4.634,2.8034l-.9172-.7086c6.3001,4.8898,11.8086,12.255,20.47,12.607,3.941.1602,7.7859-1.6245,10.8656-3.9517,3.3318-2.5177,6.1749-5.5096,8.9445-8.6203,2.6545-2.9812,5.2191-6.1823,8.3752-8.6579,1.0505-.824,1.3604-2.4181,1.1949-3.6496-.1832-1.3633-.9023-2.4405-2.0742-3.174-5.577-3.4906-11.7708-5.7607-17.6997-8.5543-2.9074-1.3699-5.7165-2.9018-8.4179-4.6439-2.6266-1.6938-5.1715-3.5103-7.7965-5.2066-3.1648-2.0451-6.4568-3.8386-10.0088-5.1237.9718,1.7115,1.9435,3.423,2.9153,5.1345.8131-2.9777,1.9104-5.8642,3.1075-8.7065l-.4175.9893c3.0949-7.3141,6.9313-14.442,8.8113-22.2046.5079-2.0972.8482-4.2435,1.0389-6.3925.1567-1.7655.0973-3.5446-.2862-5.282-.3538-1.6028-1.1432-3.0509-2.2257-4.273-1.0214-1.1532-2.4148-1.8648-3.8372-2.3818-1.2574-.457-2.6508-.5954-3.9735-.6966-1.2399-.0948-2.4863-.0816-3.7288-.0647-2.5815.0352-5.1296.0031-7.7047-.1815-1.4263-.1022-2.8573-.1872-4.2879-.1568-1.5507.033-3.2133.1347-4.6827.6641-1.6431.592-3.1731,1.5466-3.9333,3.1889-.5841,1.2618-.9426,2.5447-1.202,3.9057-.4661,2.4457-.7084,4.9256-1.1239,7.379-.2594,1.5314-.6853,3.0314-.9606,4.5619-.4242,2.3583-.7258,4.7379-1.0282,7.1143-.1334,1.0482-.2649,2.0965-.4047,3.1439l.1417-1.0542c-.4631,3.4339-1.0521,6.8439-2.099,10.1536l.4028-.9545c-.3431.7583-.6319,1.5353-.9472,2.3045,2.2693-.5991,4.5387-1.1983,6.808-1.7974-3.4364-2.9018-6.7024-5.9986-10.0458-9.0052-3.7329-3.3569-7.6121-6.7039-11.9535-9.2561-4.0183-2.3622-9.9348-5.0431-14.3009-1.9914-1.8826,1.3159-3.1227,3.1512-4.1283,5.1829-.9724,1.9644-1.9052,3.9217-3.0999,5.7657-3.3541,5.1772-7.7671,9.7262-10.1201,15.4963-.3718.9118-.0895,2.4686.428,3.2713.634.9833,1.4527,1.5254,2.5372,1.951.7399.2904,1.476.59,2.209.8975l-.978-.4127c4.2022,1.7735,8.2197,4.0176,12.2503,6.1447,1.0269.5419,2.0543,1.083,3.0844,1.6188.2326.121.4668.2391.6981.3626.2364.1262.4538.2287.7054.3349l.4101.1731c-.4374-.1872-.5389-.226-.3046-.1165.528.2804,1.086.5168,1.6275.7702,1.0519.4922,2.1083.9748,3.1711,1.4431.4792.2111.9596.4193,1.4415.6243.3025.1287.6059.2552.9085.3838.1481.0629.4962.1389-.0837-.033.4409.1307.8716.3725,1.3074.5332,2.4099.8881,4.7983,1.784,7.2724,2.4849,1.0965.3106,2.2551-.2923,2.6885-1.3195.4015-.9515.1039-2.3799-.9325-2.8459h0Z" style="fill:#fff; stroke-width:0px;"/><path d="m644.5993,441.1473c9.1307-6.3688,16.7085-14.4882,24.4531-22.4082,1.064-1.0881,2.1547-2.1523,3.2051-3.2532.6731-.7055,1.342-1.3923,1.9134-2.1869.4434-.6166.8751-1.2418,1.3183-1.8586.8396-1.1686.5002-3.1769-.5322-4.1247-1.0517-.9655-2.865-1.4177-4.1247-.5322-1.3055.9177-2.5739,1.8302-3.706,2.961-.9213.9203-1.793,1.8906-2.6733,2.8499-1.8368,2.0016-3.6557,4.0195-5.4854,6.0276-3.6631,4.0199-7.3758,8.0097-11.3062,11.7714-2.1708,2.0776-4.4247,4.0682-6.7922,5.9195-.5537.4329-.9318,1.5005-.9016,2.1765.0311.695.2334,1.3118.6609,1.8651.8726,1.1295,2.7069,1.6744,3.9708.7928h0Z" style="fill:#fff; stroke-width:0px;"/><path d="m641.2923,409.2475c.5559.2717,1.1009.5641,1.6333.8794.2713.1607.541.3253.8049.4979.1341.0877.2643.1782.3936.2729.0863.0639.1721.1283.2576.1932-.1878-.1465-.2224-.1734-.1037-.0807,1.0275.8363,2.0222,1.6971,2.9632,2.6311,1.0135,1.006,1.9736,2.0651,2.8932,3.1573.427.5071.8475,1.02,1.2668,1.5334.2316.2836.4608.569.688.8562.1143.1445.2274.2898.3412.4346.1817.2339.1512.1943-.0914-.1189.0745.0971.1489.1943.2229.2917,3.5942,4.7251,6.6529,9.8184,9.8531,14.8102.8379,1.3071,1.6778,2.6129,2.5337,3.9084.3888.5885.781,1.1749,1.1784,1.7577.7265,1.0653,1.4608,1.8426,2.6118,2.4272,1.1571.5877,2.4658.5648,3.5173-.2476,1.0603-.8192,1.3729-2.0427,1.1349-3.3288-.1587-.8578-.4224-1.6506-.9562-2.3544-.4266-.5625-.8481-1.129-1.2662-1.6979-.8152-1.1091-1.6177-2.2274-2.4174-3.3477-1.7474-2.4479-3.5017-4.886-5.3261-7.2776-3.7049-4.8566-7.5467-9.7154-12.2935-13.6058-2.3911-1.9597-4.9969-3.7606-7.8079-5.0676-.9527-.443-2.2136-.3001-2.7536.722-.4782.905-.2878,2.26.722,2.7536h0Z" style="fill:#fff; stroke-width:0px;"/><path d="m795.0975,483.5882c1.7774-10.4985,2.9735-21.0862,3.9309-31.688.266-2.9461.4827-5.8975.7611-8.8423l-.1292.9615c.3967-2.2958.863-4.5722,1.0493-6.8911l-4.1261,4.1261c6.7935.1657,13.6474-.0683,20.4004.8257l-1.1431-.1536c2.2302.305,4.6235.5572,6.721,1.4252l-1.0293-.4344c.4646.1998.9027.4391,1.3063.7449l-.8725-.6741c.3015.2381.5695.5048.8092.8052l-.6743-.8728c.3173.4148.5633.8666.7668,1.3469l-.4349-1.0306c.4783,1.1778.706,2.442.8795,3.6958l-.1543-1.1482c.2347,1.8639.1704,3.7349-.0679,5.595l.1545-1.1501c-.6375,4.7061-2.2944,9.1797-3.5539,13.7372-1.3735,4.9698-2.0178,10.1342-2.8696,15.2114-.505,3.0103-1.0413,6.0156-1.6882,8.999-.3362,1.5508-.0245,3.1082,1.1256,4.2582,1.0064,1.0064,2.8573,1.6922,4.2582,1.1256,11.5254-4.6618,23.2126-8.9245,35.001-12.8724,3.2713-1.0956,6.5513-2.1653,9.8394-3.2095l-5.4595-3.0998c1.0915,3.097,1.7689,6.319,2.2165,9.5678l-.1601-1.1913c.6323,4.7075.7804,9.462.7887,14.207.004,2.2823-.0159,4.5645-.0224,6.8467-.004,1.4174.0863,2.8723-.0963,4.2822l.1628-1.2117c-.0446.3098-.1115.6117-.2321.9014.1532-.3629.3063-.7259.4595-1.0888-.0781.1743-.1729.3358-.2861.4895l.7127-.9225c-.2598.3348-.5844.6059-.9175.8647l.9225-.7127c-2.4778,1.8982-4.9912,3.6481-7.8746,4.8814l1.0888-.4595c-2.6752,1.1258-5.4664,1.9367-8.2742,2.657-2.1979.5639-4.3996,1.1734-6.651,1.4819l1.2117-.1628c-4.3975.5864-8.8521.5945-13.2635,1.0446-2.5427.2594-5.113.5792-7.5893,1.2327-2.1663.5718-4.404,1.402-6.2329,2.7196-1.9995,1.4405-3.5201,3.25-4.6979,5.4134-1.1641,2.1384-2.0546,4.4527-2.7862,6.7722-1.564,4.9592-2.3842,10.1181-3.0543,15.2623-.6223,4.7773-1.0072,9.5941-1.1314,14.4105,2.3702-1.3601,4.7403-2.7202,7.1105-4.0803-4.215-2.6677-9.2102-3.6323-14.1338-3.7667-4.3926-.1199-8.7672.4172-13.1503.6009-2.4478.1026-4.9046.0947-7.338-.2171l1.2627.1697c-1.8882-.2544-3.7378-.7005-5.5027-1.4252l1.1353.4791c-.6656-.281-1.3121-.5971-1.9419-.9511.7282,1.7895,1.4564,3.5789,2.1846,5.3684,3.3716-9.677,7.4887-19.071,10.9916-28.699.988-2.7157,1.9242-5.45,2.7815-8.2099.5006-1.6116-.0539-3.4699-1.2273-4.6433-1.2328-1.2328-2.9721-1.6303-4.6433-1.2273-.978.2358-1.9653.4149-2.9623.5489l1.2691-.1705c-4.6952.5996-9.458.2184-14.1297-.4073l1.2709.1708c-3.8396-.5219-7.6466-1.242-11.467-1.8835-2.9358-.4929-5.9094-.9587-8.6701-2.1231l1.1443.4829c-.8969-.389-1.7549-.8509-2.5311-1.4484l.9698.7493c-.4467-.3568-.85-.75-1.2017-1.2014l.7494.97c-.2484-.3356-.4581-.6883-.6298-1.0688l.4832,1.145c-.1253-.3-.2192-.591-.2644-.9127l.1712,1.2743c-.0921-.7777-.0104-1.567.0921-2.3394l-.1713,1.2746c.4237-3.0495,1.3074-6.0246,2.0258-9.0126.4033-1.6775.7252-3.3471.9378-5.0606.1845-1.4876.1022-3.0129.0168-4.5052-.0781-1.3649-.2538-2.7598-.0879-4.1243l-.1709,1.2722c.0554-.4017.1479-.7904.3021-1.166l-.4824,1.143c.1237-.2811.2768-.5398.463-.784l-.7481.9684c.2124-.2639.4521-.4948.716-.7067l-.9683.7481c.5895-.4532,1.2509-.7877,1.9329-1.0781l-1.1426.4822c.5922-.2445,1.1627-.4242,1.7981-.5106l-1.2714.1708c1.8665-.229,3.7834-.0518,5.6463.1292,2.0568.1998,4.1042.4825,6.1587.7031,2.0046.2152,3.9937.1942,6.0074.2352,2.7664.0563,5.5314.186,8.2914.3819,3.1034.2202,6.2011.5251,9.2848.939l-1.2674-.1703c1.7665.2402,3.5279.5164,5.2791.8511,1.2756.2438,2.5196.1939,3.6718-.4804.9885-.5784,1.9311-1.7118,2.1899-2.8478.2778-1.2198.2177-2.5891-.4804-3.6718-.642-.9957-1.6405-1.9592-2.8478-2.1899-5.1843-.9907-10.4574-1.5833-15.7196-1.9646-2.5847-.1873-5.1738-.3162-7.7644-.3821-1.9111-.0486-3.8274.0151-5.7325-.1625-3.6775-.3427-7.3491-1.049-11.0527-1.0308-1.1298.0055-2.2655.1241-3.3746.3353-1.0814.2059-2.133.722-3.1118,1.1964-2.229,1.0802-3.8199,2.8615-4.7038,5.1518-.6401,1.6587-.5748,3.5447-.4675,5.292.1183,1.9276.3021,3.9062.0502,5.8294l.1711-1.2732c-.4771,3.4461-1.5956,6.79-2.3285,10.1853-.3919,1.8154-.7986,3.7191-.7676,5.582.0422,2.5333,1.1334,4.8739,2.9446,6.6399,3.2106,3.1305,7.8586,4.2849,12.1462,5.0197,5.0453.8646,10.086,1.7734,15.1646,2.4226,5.8735.7508,11.9047.9907,17.7065-.414-1.9569-1.9569-3.9137-3.9137-5.8706-5.8706-3.0304,9.7887-7.069,19.2169-10.7417,28.772-1.0381,2.7009-2.0458,5.4135-2.9952,8.1469l-.1698,1.2637c-.0247.6545.1118,1.265.4094,1.8315.3929.9311,1.0423,1.7668,1.945,2.2732,4.2861,2.4041,9.1538,3.2401,14.0203,3.2883,4.2693.0423,8.5172-.4801,12.779-.6419,2.3919-.0908,4.7914-.067,7.1672.2491l-1.2597-.1693c1.8987.2653,3.7568.7259,5.5282,1.4656l-1.1313-.4774c.8984.3855,1.7631.8308,2.5934,1.3471,3.1116,1.935,7.0482-.5942,7.1105-4.0803.0953-5.3348.5059-10.6737,1.2164-15.9614l-.1665,1.2393c.7442-5.4785,1.7489-11.0782,3.9092-16.1976l-.4633,1.0978c.6321-1.478,1.3738-2.9165,2.3457-4.202l-.7156.9263c.4437-.5716.9584-1.0706,1.5302-1.5131l-.9245.7143c.7894-.5946,1.6545-1.068,2.562-1.4564l-1.0888.4595c2.2415-.9364,4.6494-1.4027,7.0465-1.7295l-1.2117.1628c4.6818-.6238,9.4139-.632,14.1057-1.1395,2.5903-.2802,5.0469-.7938,7.5693-1.419,2.9672-.7355,5.934-1.5213,8.7841-2.6384,1.6745-.6563,3.3439-1.3655,4.9134-2.249,1.1777-.663,2.2413-1.4619,3.3279-2.2594,1.6373-1.2017,3.5038-2.2865,4.4776-4.1479,1.0936-2.0903.9756-4.4934.9758-6.7825.0003-3.2423.0412-6.4833-.029-9.7253-.166-7.6635-.7653-15.5518-3.3495-22.8244-.3742-1.0531-1.0095-2.1081-2.0396-2.6524-1.0318-.5451-2.2755-.8141-3.4199-.4474-11.8269,3.7895-23.5532,7.9021-35.1413,12.3697-3.234,1.2468-6.4566,2.523-9.6664,3.8309,1.7946,1.7946,3.5892,3.5892,5.3838,5.3838,1.3854-6.4707,2.2357-13.0376,3.4337-19.5428,1.0466-5.6832,3.281-11.0618,4.3167-16.7444.3085-1.6926.5503-3.4178.616-5.1391.0638-1.6744-.1142-3.3203-.3769-4.9736-.3027-1.9053-.8376-3.9176-1.9855-5.4979-1.4454-1.9898-3.3407-3.1992-5.69-3.9053-2.3535-.7073-4.8994-.9749-7.3261-1.2745-6.6276-.8183-13.3209-.42-19.9784-.4241-2.3234-.0014-4,1.8957-4.1261,4.1261-.055.9726-.1162,1.8305.1101,2.8074l-.1444-1.0744c.0465,1.4324.1686,2.8876.1272,4.3198-.0415,1.4344-.1691,2.8721-.2592,4.3044-.1772,2.8187-.366,5.6367-.5744,8.4533-.4197,5.6717-.92,11.3381-1.5639,16.9891-.177,1.5535-.3648,3.1057-.5646,4.6564-.0527.4092-.1066.8183-.1607,1.2274-.0244.1843-.0038.5894.0155-.1146-.0065.2383-.0686.5032-.1012.7395-.1137.8231-.2313,1.6457-.3518,2.4678-.1285.8768-.147,1.6435.3192,2.4403.3844.6569,1.1377,1.2834,1.8926,1.4554,1.5328.3491,3.6-.4653,3.8957-2.2119h0Z" style="fill:#fff; stroke-width:0px;"/></svg>